<svg version="1" xmlns="http://www.w3.org/2000/svg" width="192" height="192" viewBox="0 0 144.000000 144.000000"><path d="M74.5 26.6C55.6 30 31 39.6 31 43.6c0 1.1 1.1.9 4.8-1 7-3.5 17.5-7.1 28.7-9.7 8.3-2 12.8-2.4 26-2.4 13.8 0 17 .3 23.1 2.2 14.6 4.6 22.5 13.3 22.7 25 .1 7.3-2.7 13.1-9.3 19.3-3.7 3.4-4.8 5.2-4.8 7.5 0 4.4.5 4.6 4.3 2.4 5.4-3.2 11.2-9.4 14.2-15.1 2.4-4.6 2.8-6.4 2.7-13.8 0-6.7-.4-9.4-2.1-12.5-6.9-13-25-20.6-48.6-20.4-5.6 0-13.8.7-18.2 1.5z"/><path d="M109.9 47.2c-.1.4-.1 29.5 0 33.5.1 3.5 3.1 7.3 5.6 7.3 1.3 0 1.5-2.9 1.5-20.5V47h-3.5c-1.9 0-3.5.1-3.6.2zm13.4 1.2c-.3.5-.1.6.5.2.7-.4 1.2-.1 1.2.8 0 1.8 1.6 2.1 2.3.6.3-.6.4-.5.3.2-.2.7-1.2 1.3-2.4 1.2-1.2 0-1.9.3-1.6.8 1.5 2.4 5.9-.7 4.8-3.5-.6-1.7-4.2-1.9-5.1-.3zM21 51.8c0 3.6.1 3.8 3.5 3.9 3.5.1 3.7-.1 3.7-3.7 0-3.8-.2-4-3.7-4-3.4 0-3.5.1-3.5 3.8zm43.6.1c-.1.3-.2 7.5-.1 15.9.1 14.8.2 15.4 2.6 17.7 2.1 2 5.5 3 9.5 2.6 1-.1 1.1-1.6.5-5.5 0-.4-.7-.6-1.5-.3-2.6 1-3.6-1.7-3.6-9.6 0-7.3.2-7.9 1.9-7.4 2.9.7 4.5-.7 3.7-3.6-.4-1.7-1.2-2.4-2.8-2.3-2 .1-2.4-.5-2.8-3.9-.5-3.7-.7-4-3.8-4.1-1.8 0-3.4.2-3.6.5z"/><path d="M10.7 57.3c-2.1 2.3-5.2 7.1-7 10.6-4.1 8.4-4.7 18.6-1.5 27C6.7 106.6 19.4 115 38 118.5c5.7 1.1 30 1.4 36 .4 3-.5 7.1-1.1 9-1.4 8.4-1.3 25.2-6.6 32.3-10.2l4.7-2.3V94.1l-7.2 3.4c-27.4 12.5-61.4 16.3-85.3 9.4C6.3 100.8-.3 80 12.6 60.4c5.5-8.2 4.3-10.1-1.9-3.1z"/><path d="M21 71.3c0 9.2.4 12.8 1.5 14.4 1.4 2 5.4 3.8 5.6 2.5.1-.4.2-7.1.3-15l.1-14.2H21v12.3zm15.2-11.5c-.9.3-1.2 4.6-1.2 14.8V89h3.5c2.1 0 3.6-.5 3.6-1.3.1-.6.2-5.9.3-11.7l.1-10.5 3.4-.3c1.8-.2 3.8.1 4.3.6.6.6 1.1 5.9 1.2 11.9l.2 10.8 3.3.3c1.9.2 3.7-.1 4-.7.4-.5.6-5.7.6-11.5-.1-11.3-1.3-15.1-4.9-16.3-2.3-.7-16.6-1.1-18.4-.5zm50.8 1c-4.7 2.3-7.1 6.9-7.2 13.6-.1 4.5.3 6.1 2.6 9.1 1.5 2 4 4.1 5.4 4.6 3.7 1.5 11.2.6 14.5-1.6l2.8-1.8-2.2-2.3c-1.9-2.1-2.4-2.2-4.8-1-1.4.7-3.3 1.2-4.1 1.1-.8-.1-2.3-.3-3.2-.3-1.9-.2-4.4-4-3.3-5 .3-.4 4.1-.7 8.3-.8 4.2-.1 8.3-.2 9-.3 1.8-.2 1.4-5-.7-9.8-3.2-6.9-10-9.1-17.1-5.5zm9.2 5.9c3.3 3 2.3 4.3-3.7 4.3-6.1 0-7.3-1.6-3.3-4.4 2.9-2 4.7-2 7 .1z"/></svg>