<?xml version="1.0" encoding="utf-8"?>
<!-- Generator: Adobe Illustrator 23.0.1, SVG Export Plug-In . SVG Version: 6.00 Build 0)  -->
<svg version="1.1" id="Layer_1" xmlns="http://www.w3.org/2000/svg" xmlns:xlink="http://www.w3.org/1999/xlink" x="0px" y="0px"
	 viewBox="0 0 80 80" style="enable-background:new 0 0 80 80;" xml:space="preserve">
<style type="text/css">
	.st0{filter:url(#Adobe_OpacityMaskFilter);}
	.st1{fill-rule:evenodd;clip-rule:evenodd;fill:#FFFFFF;}
	.st2{mask:url(#mask-2_1_);fill-rule:evenodd;clip-rule:evenodd;fill:#00AEEF;}
	.st3{fill-rule:evenodd;clip-rule:evenodd;fill:#00AEEF;}
</style>
<g id="Symbols_2_">
	<g id="graphics" transform="translate(-21.000000, -30.000000)">
		<g id="Group-6" transform="translate(21.115385, 29.760870)">
			<g id="Group-3_2_" transform="translate(0.000000, 0.421084)">
				<defs>
					<filter id="Adobe_OpacityMaskFilter" filterUnits="userSpaceOnUse" x="21" y="29.1" width="37.7" height="20.8">
						<feColorMatrix  type="matrix" values="1 0 0 0 0  0 1 0 0 0  0 0 1 0 0  0 0 0 1 0"/>
					</filter>
				</defs>
				<mask maskUnits="userSpaceOnUse" x="21" y="29.1" width="37.7" height="20.8" id="mask-2_1_">
					<g class="st0">
						<polygon id="path-1_1_" class="st1" points="21,29.1 58.7,29.1 58.7,49.9 21,49.9 						"/>
					</g>
				</mask>
				<path id="Fill-1_2_" class="st2" d="M22.9,39.5c3.9,5.5,10.2,8.8,17,8.8c6.8,0,13.1-3.3,17-8.8c-3.9-5.5-10.2-8.8-17-8.8
					S26.8,34,22.9,39.5 M39.8,49.9c-7.5,0-14.4-3.7-18.5-10L21,39.5l0.3-0.4c4.1-6.2,11.1-10,18.5-10c7.5,0,14.4,3.7,18.5,10
					l0.3,0.4L58.4,40C54.2,46.2,47.3,49.9,39.8,49.9"/>
			</g>
			<path id="Fill-4_1_" class="st3" d="M33,39.9c0-3.8,3.1-6.9,6.9-6.9c3.8,0,6.9,3.1,6.9,6.9c0,3.8-3.1,6.9-6.9,6.9
				C36,46.8,33,43.7,33,39.9"/>
		</g>
	</g>
</g>
</svg>
