<?xml version="1.0" encoding="utf-8"?>
<!-- Generator: Adobe Illustrator 23.0.2, SVG Export Plug-In . SVG Version: 6.00 Build 0)  -->
<svg version="1.1" id="Layer_1" xmlns="http://www.w3.org/2000/svg" xmlns:xlink="http://www.w3.org/1999/xlink" x="0px" y="0px"
	 viewBox="0 0 80 80" style="enable-background:new 0 0 80 80;" xml:space="preserve">
<style type="text/css">
	.st0{fill-rule:evenodd;clip-rule:evenodd;fill:#00AEEF;}
	.st1{fill-rule:evenodd;clip-rule:evenodd;fill:#003E6B;}
</style>
<g id="Page-3_1_">
	<g id="Group-5">
		<path id="Fill-1" class="st0" d="M49.2,47.2H32.6c-0.2,0-0.3,0.1-0.3,0.3v2.4l0,0l0,3.2c0,0.1-0.2,0.2-0.3,0.1
			c0,0-1.2-1.1-1.3-1.1c-2.5-2.2-5.9-5.1-8.3-7.6C19.6,41.6,18,38,18,34.7c0-6.9,5.6-12.5,12.6-12.5h18.8c7,0,12.7,5.7,12.6,12.7
			C61.9,41.7,56.1,47.2,49.2,47.2 M49.2,19.6H30.6c-8.3,0-15.1,6.8-15.1,15.1c0,4,1.9,8.2,5.1,11.6c3.5,3.7,12.2,10.9,13.8,12.1
			c0.2,0.1,0.5,0,0.5-0.3c0-0.2,0-7.7,0-7.7c0-0.3,0.3-0.6,0.6-0.6h13.9c8.4,0,15.2-6.8,15.1-15.2C64.4,26.2,57.5,19.6,49.2,19.6"/>
		<path id="Fill-3" class="st1" d="M49,36.4c0,0.1-0.1,0.1-0.1,0.1h-3.8c-0.1,0-0.1-0.1-0.1-0.1v-3.8c0-0.1,0.1-0.1,0.1-0.1h3.8
			c0.1,0,0.1,0.1,0.1,0.1V36.4z M42,36.4c0,0.1-0.1,0.1-0.1,0.1h-3.8c-0.1,0-0.1-0.1-0.1-0.1v-3.8c0-0.1,0.1-0.1,0.1-0.1h3.8
			c0.1,0,0.1,0.1,0.1,0.1V36.4z M35,36.4c0,0.1-0.1,0.1-0.1,0.1h-3.8c-0.1,0-0.1-0.1-0.1-0.1v-3.8c0-0.1,0.1-0.1,0.1-0.1h3.8
			c0.1,0,0.1,0.1,0.1,0.1V36.4z"/>
	</g>
</g>
</svg>
