<?xml version="1.0" encoding="UTF-8"?>
<svg width="80px" height="80px" viewBox="0 0 80 80" version="1.1" xmlns="http://www.w3.org/2000/svg" xmlns:xlink="http://www.w3.org/1999/xlink">
    <!-- Generator: Sketch 51.3 (57544) - http://www.bohemiancoding.com/sketch -->
    <title>icon/2blue/media/photo editing</title>
    <desc>Created with Sketch.</desc>
    <defs></defs>
    <g id="icon/2blue/media/photo-editing" stroke="none" stroke-width="1" fill="none" fill-rule="evenodd">
        <g id="Group" transform="translate(20.000000, 30.000000)">
            <polyline id="Path" fill="#003C71" fill-rule="nonzero" points="11.2725384 17.4 4.64 17.4 4.64 10.6767985 11.4509974 4.64 18.56 10.9409214"></polyline>
            <path d="M29.6734966,10.44 C31.1703866,10.44 32.48,9.08675775 32.48,7.54 C32.48,5.99333984 30.9833934,4.64 29.4865034,4.64 C27.989519,4.64 26.68,5.80021469 26.68,7.54 C26.68,9.28007807 28.1767955,10.44 29.6734966,10.44" id="Fill-5" fill="#003C71"></path>
            <polyline id="Path" fill="#003C71" fill-rule="nonzero" points="32.48 17.4 23.2 9.28 13.92 17.3999952"></polyline>
            <polyline id="Path" fill="#003C71" fill-rule="nonzero" points="47.56 13.6903889 45.4696108 11.6 32.48 24.5896111 34.5703902 26.68"></polyline>
            <polyline id="Path" fill="#003C71" fill-rule="nonzero" points="31.344912 25.52 30.16 29 33.64 27.8150868"></polyline>
            <polyline id="Path" fill="#00AEEF" fill-rule="nonzero" points="34.0845331 19.8761808 2.21060261 19.8761808 2.21060261 2.16394073 37.2293984 2.16394073 37.2293984 16.797703 39.44 14.6337543 39.44 0 0 0 0 22.04 31.8740547 22.04"></polyline>
        </g>
    </g>
</svg>