<?xml version="1.0" encoding="UTF-8"?>
<svg width="80px" height="80px" viewBox="0 0 80 80" version="1.1" xmlns="http://www.w3.org/2000/svg" xmlns:xlink="http://www.w3.org/1999/xlink">
    <!-- Generator: Sketch 51.3 (57544) - http://www.bohemiancoding.com/sketch -->
    <title>icon/2blue/gaming/puzzle</title>
    <desc>Created with Sketch.</desc>
    <defs>
        <polygon id="path-1" points="0 0.0471825193 31.9973333 0.0471825193 31.9973333 42 0 42"></polygon>
    </defs>
    <g id="icon/2blue/gaming/puzzle" stroke="none" stroke-width="1" fill="none" fill-rule="evenodd">
        <g id="tablet-icon" transform="translate(24.000000, 20.000000)">
            <path d="M9.83344743,33 L6.16665037,33 C6.07471883,33 6,32.9250874 6,32.8333537 L6,29.1666463 C6,29.0748148 6.07471883,29 6.16665037,29 L9.83344743,29 C9.92518337,29 10,29.0748148 10,29.1666463 L10,32.8333537 C10,32.9250874 9.92518337,33 9.83344743,33" id="Fill-1" fill="#003E6B"></path>
            <path d="M16.8334474,33 L13.1666504,33 C13.0747188,33 13,32.9250874 13,32.8333537 L13,29.1666463 C13,29.0748148 13.0747188,29 13.1666504,29 L16.8334474,29 C16.9251834,29 17,29.0748148 17,29.1666463 L17,32.8333537 C17,32.9250874 16.9251834,33 16.8334474,33" id="Fill-3" fill="#003E6B"></path>
            <path d="M24.8333537,33 L21.1666463,33 C21.0748148,33 21,32.9250874 21,32.8333537 L21,29.1666463 C21,29.0748148 21.0748148,29 21.1666463,29 L24.8333537,29 C24.9250874,29 25,29.0748148 25,29.1666463 L25,32.8333537 C25,32.9250874 24.9250874,33 24.8333537,33" id="Fill-5" fill="#003E6B"></path>
            <path d="M9.83344743,17 L6.16665037,17 C6.07471883,17 6,16.9250874 6,16.8333537 L6,13.1666463 C6,13.0748148 6.07471883,13 6.16665037,13 L9.83344743,13 C9.92518337,13 10,13.0748148 10,13.1666463 L10,16.8333537 C10,16.9250874 9.92518337,17 9.83344743,17" id="Fill-7" fill="#003E6B"></path>
            <path d="M16.8334474,17 L13.1666504,17 C13.0747188,17 13,16.9250874 13,16.8333537 L13,13.1666463 C13,13.0748148 13.0747188,13 13.1666504,13 L16.8334474,13 C16.9251834,13 17,13.0748148 17,13.1666463 L17,16.8333537 C17,16.9250874 16.9251834,17 16.8334474,17" id="Fill-9" fill="#003E6B"></path>
            <path d="M24.8333537,17 L21.1666463,17 C21.0748148,17 21,16.9250874 21,16.8333537 L21,13.1666463 C21,13.0748148 21.0748148,13 21.1666463,13 L24.8333537,13 C24.9250874,13 25,13.0748148 25,13.1666463 L25,16.8333537 C25,16.9250874 24.9250874,17 24.8333537,17" id="Fill-11" fill="#003E6B"></path>
            <path d="M9.83344743,25 L6.16665037,25 C6.07471883,25 6,24.9251852 6,24.8333537 L6,21.1666463 C6,21.0748148 6.07471883,21 6.16665037,21 L9.83344743,21 C9.92518337,21 10,21.0748148 10,21.1666463 L10,24.8333537 C10,24.9251852 9.92518337,25 9.83344743,25" id="Fill-13" fill="#003E6B"></path>
            <path d="M16.8334474,25 L13.1666504,25 C13.0747188,25 13,24.9251852 13,24.8333537 L13,21.1666463 C13,21.0748148 13.0747188,21 13.1666504,21 L16.8334474,21 C16.9251834,21 17,21.0748148 17,21.1666463 L17,24.8333537 C17,24.9251852 16.9251834,25 16.8334474,25" id="Fill-15" fill="#003E6B"></path>
            <path d="M9.83344743,10 L6.16665037,10 C6.07471883,10 6,9.9251852 6,9.83335371 L6,6.16664629 C6,6.0748148 6.07471883,6 6.16665037,6 L9.83344743,6 C9.92518337,6 10,6.0748148 10,6.16664629 L10,9.83335371 C10,9.9251852 9.92518337,10 9.83344743,10" id="Fill-17" fill="#003E6B"></path>
            <path d="M16.8334474,10 L13.1666504,10 C13.0747188,10 13,9.9251852 13,9.83335371 L13,6.16664629 C13,6.0748148 13.0747188,6 13.1666504,6 L16.8334474,6 C16.9251834,6 17,6.0748148 17,6.16664629 L17,9.83335371 C17,9.9251852 16.9251834,10 16.8334474,10" id="Fill-19" fill="#003E6B"></path>
            <path d="M24.8333537,10 L21.1666463,10 C21.0748148,10 21,9.9251852 21,9.83335371 L21,6.16664629 C21,6.0748148 21.0748148,6 21.1666463,6 L24.8333537,6 C24.9250874,6 25,6.0748148 25,6.16664629 L25,9.83335371 C25,9.9251852 24.9250874,10 24.8333537,10" id="Fill-21" fill="#003E6B"></path>
            <g id="Group-25">
                <mask id="mask-2" fill="white">
                    <use xlink:href="#path-1"></use>
                </mask>
                <g id="Clip-24"></g>
                <path d="M29.0888213,36.663873 C29.0888213,36.765256 29.0071147,36.8478524 28.9070613,36.8478524 L3.09031467,36.8478524 C2.99015467,36.8478524 2.90855467,36.765256 2.90855467,36.663873 L2.90855467,3.17529717 C2.90855467,3.07391414 2.99015467,2.99120977 3.09031467,2.99120977 L28.9070613,2.99120977 C29.0071147,2.99120977 29.0888213,3.07391414 29.0888213,3.17529717 L29.0888213,36.663873 Z M21.7265813,40.2502843 L10.2741013,40.2502843 C9.82226133,40.2502843 9.45607467,39.8797342 9.45607467,39.4222689 C9.45607467,38.9648036 9.82226133,38.5942535 10.2741013,38.5942535 L21.7265813,38.5942535 C22.1784213,38.5942535 22.5445013,38.9648036 22.5445013,39.4222689 C22.5445013,39.8797342 22.1784213,40.2502843 21.7265813,40.2502843 Z M31.6336747,0.0471069409 L0.363594667,0.0471069409 C0.162421333,0.0471069409 -3.2e-05,0.211651928 -3.2e-05,0.415281748 L-3.2e-05,41.6320735 C-3.2e-05,41.8355954 0.162421333,42.0000324 0.363594667,42.0000324 L31.6336747,42.0000324 C31.834848,42.0000324 31.997408,41.8355954 31.997408,41.6320735 L31.997408,0.415281748 C31.997408,0.211651928 31.834848,0.0471069409 31.6336747,0.0471069409 Z" id="Fill-23" fill="#00AEEF" mask="url(#mask-2)"></path>
            </g>
        </g>
    </g>
</svg>