<?xml version="1.0" encoding="UTF-8"?>
<svg width="80px" height="80px" viewBox="0 0 80 80" version="1.1" xmlns="http://www.w3.org/2000/svg" xmlns:xlink="http://www.w3.org/1999/xlink">
    <!-- Generator: Sketch 51.3 (57544) - http://www.bohemiancoding.com/sketch -->
    <title>icon/2blue/entertain/vr 360</title>
    <desc>Created with Sketch.</desc>
    <defs>
        <polygon id="path-1" points="1.19047619e-05 4.76190476e-05 49.9997619 4.76190476e-05 49.9997619 50 1.19047619e-05 50"></polygon>
    </defs>
    <g id="icon/2blue/entertain/vr-360" stroke="none" stroke-width="1" fill="none" fill-rule="evenodd">
        <g id="Group-66" transform="translate(15.000000, 17.000000)">
            <polygon id="Fill-1" fill="#003E6B" points="42 17 9 17 9 33 20.0093139 33 25.5001184 27.5778525 30.9908045 33 42 33"></polygon>
            <g id="Group-65">
                <g id="Group-4">
                    <mask id="mask-2" fill="white">
                        <use xlink:href="#path-1"></use>
                    </mask>
                    <g id="Clip-3"></g>
                    <path d="M24.9997738,4.76190476e-05 L24.9966786,4.76190476e-05 L24.9966786,0.0015952381 L24.9966786,1.70207143 L25.0097738,1.70207143 C37.8832262,1.70207143 48.3207262,12.1381429 48.3207262,25.013381 C48.3207262,37.888381 37.8846548,48.3244524 25.0097738,48.3244524 C12.1364405,48.3244524 1.69846429,37.888381 1.69846429,25.013381 C1.69846429,16.8600476 5.88513095,9.68314286 12.2266786,5.51611905 L12.315131,5.46207143 L12.315131,10.0506429 L14.0156071,10.0506429 L14.0156071,2.61480952 L6.57953571,2.61480952 L6.57953571,4.31492857 L10.9596548,4.31492857 C4.3079881,8.87588095 1.19047619e-05,16.4349286 1.19047619e-05,25.0001667 C1.19047619e-05,38.8070714 11.19275,50.0000476 24.9997738,50.0000476 C38.8070357,50.0000476 49.9997738,38.8070714 49.9997738,25.0001667 C49.9997738,11.1929048 38.8070357,4.76190476e-05 24.9997738,4.76190476e-05" id="Fill-2" fill="#00AEEF" mask="url(#mask-2)"></path>
                </g>
                <path d="M19.8451548,40.0235238 C19.8467024,39.9955476 19.84825,39.969119 19.84825,39.9415 C19.84825,39.3243571 19.4165833,38.8087619 18.830631,38.6761429 L18.8389643,38.6728095 C19.0780119,38.5594762 19.2812262,38.3794762 19.425631,38.1519762 C19.5518214,37.9331667 19.6250357,37.6795952 19.6250357,37.409119 L19.6250357,37.3615 L19.6267024,37.3647143 L19.6267024,37.3615 C19.6150357,37.113881 19.5477738,36.8806667 19.4411071,36.6835238 L19.4380119,36.6755476 C19.3463452,36.4855476 19.2136071,36.3205476 19.0486071,36.189119 C18.8765833,36.0573333 18.6813452,35.9554286 18.4571786,35.8857857 C18.2100357,35.8144762 17.9494405,35.7744762 17.6801548,35.7744762 L17.6524167,35.7744762 L17.6505119,35.7744762 L17.6342024,35.7744762 C17.2847976,35.7744762 16.9465833,35.8332857 16.6544405,35.9350714 L16.6349167,35.9418571 C16.3280119,36.0500714 16.0438452,36.2074524 15.8009881,36.401381 L16.308369,37.1594762 L16.3017024,37.1642381 C16.47825,37.0381667 16.67325,36.9399524 16.8976548,36.8650714 C17.08825,36.8001905 17.2897976,36.764 17.503131,36.7609048 L17.4997976,36.7609048 C17.5259881,36.7592381 17.5521786,36.7572143 17.5801548,36.7572143 C17.8000357,36.7572143 18.0020595,36.8329286 18.1594405,36.9575714 C18.2893214,37.0874524 18.3694405,37.2661429 18.3694405,37.4631667 C18.3694405,37.481381 18.3694405,37.4993571 18.3677738,37.514119 L18.3677738,37.5417381 C18.3677738,37.7404286 18.2940833,37.919119 18.1759881,38.0569762 C18.0297976,38.1953095 17.8344405,38.279 17.6178929,38.279 C17.6047976,38.279 17.5901548,38.2774524 17.5784881,38.2774524 L16.7972976,38.2774524 L16.7972976,39.2437619 L17.6211071,39.2437619 C18.2776548,39.2437619 18.605869,39.4769762 18.605869,39.9545952 L18.605869,39.9706667 C18.605869,40.2010238 18.5014643,40.4081667 18.3389643,40.5475714 C18.1438452,40.6847143 17.9062262,40.7667381 17.6489643,40.7667381 C17.6178929,40.7667381 17.5867024,40.7651905 17.5605119,40.7636429 L17.5325357,40.7636429 C17.2863452,40.7636429 17.0500357,40.7223333 16.8447976,40.6503095 L16.8268214,40.6454286 C16.5937262,40.5617381 16.3771786,40.4450714 16.1884881,40.3056667 L15.6705119,41.0809048 C15.9139643,41.2909048 16.19575,41.4592381 16.5214643,41.576619 C16.8570595,41.6935238 17.2187262,41.7580476 17.59325,41.7580476 L17.630869,41.7580476 L17.6325357,41.7580476 L17.6670595,41.7580476 C17.9824167,41.7580476 18.285869,41.7135238 18.5517024,41.6382857 L18.5665833,41.6350714 C18.8175357,41.561381 19.0505119,41.4431667 19.2493214,41.2920952 L19.2524167,41.288881 C19.43325,41.1470952 19.5803929,40.9643571 19.6868214,40.7472143 C19.7874167,40.531619 19.8451548,40.2924524 19.8451548,40.0395952 L19.8451548,40.0235238 Z" id="Fill-7" fill="#003E6B"></path>
                <path d="M23.7246667,40.5536667 C23.565381,40.724381 23.3405,40.8292619 23.0895476,40.8292619 C23.0749048,40.8292619 23.0589524,40.8277143 23.0460952,40.8277143 C23.0316905,40.8292619 23.0170476,40.8292619 23.0025238,40.8292619 C22.7520476,40.8292619 22.5241905,40.7275952 22.3584762,40.5656905 C22.1997857,40.3802143 22.1050238,40.1397381 22.1050238,39.8772381 C22.1050238,39.852 22.1064524,39.826881 22.108119,39.8048571 C22.1033571,39.7691429 22.1016905,39.7337857 22.1016905,39.6985476 C22.1016905,39.4505714 22.1918095,39.2242619 22.3394286,39.0503333 C22.5102619,38.8928333 22.7383571,38.7974762 22.9894286,38.7974762 C23.0100238,38.7974762 23.0305,38.7974762 23.048119,38.7991429 C23.070619,38.7974762 23.0933571,38.7958095 23.1158571,38.7958095 C23.3482381,38.7958095 23.558,38.8872381 23.7120476,39.0362857 C23.8610952,39.2134286 23.9496667,39.4409286 23.9496667,39.6902143 C23.9496667,39.7198571 23.948,39.7478333 23.9462143,39.7723571 L23.9626429,39.802 L23.9626429,39.7983095 C23.9643095,39.8184286 23.9643095,39.8365238 23.9643095,39.8561667 C23.9643095,40.1200952 23.8739524,40.3633095 23.7246667,40.5536667 M25.0639524,38.8745 L25.0607381,38.8631905 C24.9818095,38.6597381 24.8620476,38.4773571 24.7127619,38.324619 C24.5614524,38.1752143 24.3789524,38.0590238 24.1684762,37.9753333 C23.9520476,37.8935476 23.7188333,37.847119 23.4737143,37.847119 L23.4524048,37.847119 L23.4505,37.847119 C23.3013333,37.8486667 23.1551429,37.8634286 23.0288333,37.8883095 L23.0172857,37.8899762 C22.8714524,37.914381 22.7301429,37.9589048 22.610381,38.0129524 L22.600619,38.0177143 C22.4560952,38.0850952 22.3249048,38.172 22.2099048,38.2758095 L22.2083571,38.2774762 C22.0983571,38.3691429 22.0047857,38.4789048 21.9291905,38.6104524 L21.9291905,38.5711667 C21.9291905,38.0590238 22.0983571,37.5878333 22.3774048,37.2135476 L22.3789524,37.212 C22.6365714,36.9331905 23.0076429,36.7572381 23.418,36.7572381 C23.4435952,36.7572381 23.4690714,36.7572381 23.4914524,36.7592619 C23.5122857,36.7572381 23.5315714,36.7572381 23.5524048,36.7572381 C23.9215714,36.7572381 24.2645476,36.8690238 24.5435952,37.0561667 L25.0010952,36.2267619 C24.7887143,36.0700952 24.5444286,35.9523571 24.2670476,35.8822381 C23.9993095,35.8112857 23.7185952,35.7711667 23.4291905,35.7711667 L23.4095476,35.7711667 L23.407881,35.7711667 L23.3734762,35.7711667 C22.9944286,35.7711667 22.6318095,35.8465238 22.3214524,35.9795 L22.3069286,35.9847381 C21.9927619,36.1154524 21.7166905,36.3180714 21.4939524,36.5729524 C21.2570476,36.8506905 21.0762143,37.1755714 20.9613333,37.5505714 C20.8483571,37.9584286 20.7870476,38.3880714 20.7870476,38.832 C20.7870476,39.2862857 20.8494286,39.7262857 20.9593095,40.1089048 L20.9641905,40.126881 C21.0560952,40.4498571 21.2138333,40.7487857 21.4189524,40.9984286 L21.4221667,41.0031905 C21.6033571,41.2348571 21.8355,41.4250952 22.1125238,41.5630714 C22.3985952,41.6864048 22.7144286,41.7565238 23.0452619,41.7565238 L23.0697857,41.7565238 L23.0715714,41.7565238 L23.0877619,41.7565238 C23.3897857,41.7565238 23.680381,41.7023571 23.9297857,41.607119 L23.9427619,41.6022381 C24.1858571,41.506881 24.4058571,41.3610476 24.5862143,41.177119 C24.7647857,40.9955714 24.9016905,40.7740238 24.9935952,40.5167619 C25.1096667,40.2367619 25.1772857,39.9314048 25.1837143,39.6080714 L25.1837143,39.5899762 C25.1837143,39.3340238 25.1393095,39.0879524 25.0639524,38.8745" id="Fill-23" fill="#003E6B"></path>
                <path d="M28.3741429,40.7439762 C27.6830714,40.7439762 27.3303333,40.0876667 27.3303333,38.7630238 C27.3303333,37.4138571 27.6767619,36.7756429 28.3741429,36.7756429 C29.0714048,36.7756429 29.424381,37.438381 29.424381,38.7630238 C29.424381,40.0876667 29.0650952,40.7439762 28.3741429,40.7439762 M30.7029524,38.6532619 C30.7029524,38.2181429 30.6404524,37.796119 30.5340238,37.4304048 L30.5290238,37.4124286 C30.4304524,37.070881 30.2647381,36.7573095 30.0497381,36.4932619 L30.0465238,36.4900476 C29.8573571,36.2551667 29.6123571,36.0664762 29.3198571,35.9414762 C29.0306905,35.8215952 28.7133095,35.7548095 28.3806905,35.7548095 C28.0441429,35.7548095 27.7225952,35.8237381 27.4467619,35.9401667 L27.4337857,35.9450476 C27.1517619,36.0656429 26.9061667,36.2531429 26.7114048,36.4904048 C26.497119,36.7600476 26.3340238,37.0713571 26.2304524,37.4290952 C26.1164048,37.851119 26.0552143,38.2921905 26.0552143,38.7481429 C26.0552143,39.2157619 26.1174762,39.6689762 26.2274762,40.0644524 L26.2323571,40.0824286 C26.3292619,40.4223095 26.4933095,40.7323095 26.7049762,40.9946905 L26.7083095,40.9985 C26.8989048,41.2327857 27.1465238,41.4204048 27.4395,41.5464762 C27.7287857,41.6671905 28.0465238,41.733619 28.3791429,41.733619 C28.7154524,41.733619 29.037,41.6646905 29.3129524,41.5481429 L29.3242619,41.5429048 C29.6067619,41.4235 29.854381,41.2343333 30.0465238,40.9932619 L30.0431905,40.9985 C30.2584286,40.7407619 30.4212857,40.4394524 30.5250952,40.0944524 C30.6365238,39.7005238 30.6979524,39.2880238 30.6979524,38.858381 C30.6979524,38.8239762 30.6964048,38.791119 30.6964048,38.7630238 L30.7014048,38.7614762 L30.7014048,38.7662381 C30.7029524,38.7285 30.7029524,38.690881 30.7029524,38.6532619" id="Fill-49" fill="#003E6B"></path>
                <path d="M32.9777143,37.5617738 C32.9580714,37.5617738 32.9381905,37.5601071 32.9202143,37.5586786 L32.8908095,37.5586786 C32.7484286,37.5586786 32.6179524,37.5024881 32.5209286,37.4143929 C32.4311667,37.29975 32.377,37.1559405 32.377,36.9968929 C32.377,36.8377262 32.4311667,36.6935595 32.519619,36.5785595 C32.6150952,36.4852262 32.7445,36.4274881 32.8872381,36.4274881 C32.8985476,36.4274881 32.909619,36.4295119 32.919619,36.4295119 C32.9305714,36.4274881 32.9434286,36.4274881 32.9561667,36.4274881 C33.1022381,36.4274881 33.2353333,36.4852262 33.332119,36.5785595 C33.4223571,36.6818929 33.4764048,36.8182024 33.4764048,36.9676071 L33.4764048,36.9968929 L33.4733095,36.9985595 C33.4762857,37.0187976 33.4780714,37.0392738 33.4780714,37.0609405 C33.4780714,37.3365357 33.2549762,37.5617738 32.9777143,37.5617738 M34.2249762,36.9904643 C34.2249762,36.6462976 34.0923571,36.3317738 33.8760476,36.0968929 C33.6428333,35.8958214 33.3398571,35.7728452 33.007119,35.7728452 C32.9880714,35.7728452 32.9674762,35.7743929 32.9511667,35.7743929 C32.932119,35.7728452 32.9129524,35.7728452 32.8939048,35.7728452 C32.5641429,35.7728452 32.2636667,35.8958214 32.0373571,36.0960595 C31.8189048,36.3108214 31.6842619,36.6114167 31.6842619,36.9432024 C31.6842619,36.962369 31.6858095,36.9808214 31.6858095,36.9968929 L31.6827143,36.9968929 L31.6827143,36.9936786 C31.6810476,37.0136786 31.6810476,37.0333214 31.6810476,37.0529643 C31.6810476,37.3791548 31.8154524,37.6739167 32.0331905,37.8839167 C32.2628333,38.0851071 32.5628333,38.2085595 32.8908095,38.2085595 C32.9112857,38.2085595 32.9304524,38.2065357 32.9464048,38.2065357 C32.9655714,38.2085595 32.9862857,38.2085595 33.0054524,38.2085595 C33.3386667,38.2085595 33.6423571,38.0851071 33.8735476,37.88475 L33.8735476,37.8866548 C34.091881,37.6520119 34.2249762,37.3351071 34.2249762,36.9904643" id="Fill-63" fill="#003E6B"></path>
            </g>
        </g>
    </g>
</svg>