<?xml version="1.0" encoding="utf-8"?>
<!-- Generator: Adobe Illustrator 23.0.1, SVG Export Plug-In . SVG Version: 6.00 Build 0)  -->
<svg version="1.1" id="Layer_1" xmlns="http://www.w3.org/2000/svg" xmlns:xlink="http://www.w3.org/1999/xlink" x="0px" y="0px"
	 viewBox="0 0 80 80" style="enable-background:new 0 0 80 80;" xml:space="preserve">
<style type="text/css">
	.st0{filter:url(#Adobe_OpacityMaskFilter);}
	.st1{fill-rule:evenodd;clip-rule:evenodd;fill:#FFFFFF;}
	.st2{mask:url(#mask-2_2_);fill-rule:evenodd;clip-rule:evenodd;fill:#00AEEF;}
	.st3{fill-rule:evenodd;clip-rule:evenodd;fill:#00AEEF;}
</style>
<g id="Symbols">
	<g id="memory" transform="translate(-22.000000, -28.000000)">
		<g id="Group-10" transform="translate(22.000000, 28.000000)">
			<g id="Group-3" transform="translate(0.000000, 0.122847)">
				<defs>
					<filter id="Adobe_OpacityMaskFilter" filterUnits="userSpaceOnUse" x="21.7" y="28" width="36.6" height="23.7">
						<feColorMatrix  type="matrix" values="1 0 0 0 0  0 1 0 0 0  0 0 1 0 0  0 0 0 1 0"/>
					</filter>
				</defs>
				<mask maskUnits="userSpaceOnUse" x="21.7" y="28" width="36.6" height="23.7" id="mask-2_2_">
					<g class="st0">
						<polygon id="path-1_2_" class="st1" points="21.7,28 58.3,28 58.3,51.7 21.7,51.7 						"/>
					</g>
				</mask>
				<path id="Fill-1" class="st2" d="M56.1,49.4c0,0.1-0.1,0.1-0.1,0.1H42.4c-0.1,0-0.2-0.2-0.1-0.3c6.8-3.5,11.5-10.9,12-19
					c0-0.1,0.1-0.1,0.1-0.1H56c0.1,0,0.1,0.1,0.1,0.1V49.4z M23.9,49.4V30.3c0-0.1,0.1-0.1,0.1-0.1h28c0.1,0,0.1,0.1,0.1,0.1
					c-0.6,10.4-9.2,19.2-19.7,19.2H24C23.9,49.6,23.9,49.5,23.9,49.4z M58,28H22c-0.1,0-0.3,0.1-0.3,0.3v23.1c0,0.1,0.1,0.3,0.3,0.3
					h10.4v0c0,0,0,0,0,0H58c0.1,0,0.3-0.1,0.3-0.3V28.3C58.3,28.2,58.2,28,58,28z"/>
			</g>
			<path id="Fill-4" class="st3" d="M26.6,31.9c0.6,0,1.1,0.5,1.1,1.1c0,0.6-0.5,1.1-1.1,1.1c-0.6,0-1.1-0.5-1.1-1.1
				C25.5,32.4,26,31.9,26.6,31.9"/>
			<path id="Fill-6" class="st3" d="M26.6,45.9c0.6,0,1.1,0.5,1.1,1.1c0,0.6-0.5,1.1-1.1,1.1s-1.1-0.5-1.1-1.1
				C25.5,46.4,26,45.9,26.6,45.9"/>
			<path id="Fill-8" class="st3" d="M53.4,45.9c0.6,0,1.1,0.5,1.1,1.1c0,0.6-0.5,1.1-1.1,1.1c-0.6,0-1.1-0.5-1.1-1.1
				C52.4,46.4,52.9,45.9,53.4,45.9"/>
		</g>
	</g>
</g>
</svg>
