<?xml version="1.0" encoding="utf-8"?>
<!-- Generator: Adobe Illustrator 23.0.1, SVG Export Plug-In . SVG Version: 6.00 Build 0)  -->
<svg version="1.1" id="Layer_1" xmlns="http://www.w3.org/2000/svg" xmlns:xlink="http://www.w3.org/1999/xlink" x="0px" y="0px"
	 viewBox="0 0 80 80" style="enable-background:new 0 0 80 80;" xml:space="preserve">
<style type="text/css">
	.st0{fill-rule:evenodd;clip-rule:evenodd;fill:#00AEEF;}
</style>
<g id="Symbols_1_">
	<g id="memory_1_" transform="translate(-23.000000, -28.000000)">
		<g id="Group-3_1_" transform="translate(23.000000, 28.000000)">
			<path id="Fill-1_1_" class="st0" d="M22.7,41.8v8.1H26v2.5h2V50h4.4v2.5h2V50h4.4v2.5h2V50h4.4v2.5h2V50h4.4v2.5h2V50h3.4l0-8.2
				H22.7z M24.8,47.9h30.4v-4.1H24.8V47.9z"/>
			<path id="Fill-2" class="st0" d="M22.7,27.5v8.1H26v2.5h2v-2.5h4.4v2.5h2v-2.5h4.4v2.5h2v-2.5h4.4v2.5h2v-2.5h4.4v2.5h2v-2.5h3.4
				l0-8.2H22.7z M24.8,33.6h30.4v-4.1H24.8V33.6z"/>
		</g>
	</g>
</g>
</svg>
