<?xml version="1.0" encoding="utf-8"?>
<!-- Generator: Adobe Illustrator 23.0.3, SVG Export Plug-In . SVG Version: 6.00 Build 0)  -->
<svg version="1.1" id="Layer_2" xmlns="http://www.w3.org/2000/svg" xmlns:xlink="http://www.w3.org/1999/xlink" x="0px" y="0px"
	 viewBox="0 0 80 80" style="enable-background:new 0 0 80 80;" xml:space="preserve">
<style type="text/css">
	.st0{fill:#00AEEF;}
</style>
<g>
	<path class="st0" d="M27.5,47.6L27.5,47.6v5.1h5.1C32.6,49.9,30.3,47.6,27.5,47.6z"/>
	<path class="st0" d="M27.5,41.1L27.5,41.1v3.1l0,0c4.7,0,8.6,3.8,8.6,8.6h3.1C39.2,46.3,33.9,41,27.5,41.1z"/>
	<path class="st0" d="M43.3,47.3c-0.6,0-1.2-0.1-1.8-0.2c0.7,1.8,1.1,3.7,1.1,5.6h3.1c0-1.9-0.3-3.7-0.9-5.5
		C44.3,47.3,43.8,47.3,43.3,47.3z"/>
	<path class="st0" d="M32.6,38.5c-0.1-0.7-0.2-1.5-0.2-2.2c0-0.4,0-0.7,0.1-1.1c-1.6-0.5-3.3-0.7-5-0.7l0,0v3.1l0,0
		C29.2,37.6,30.9,37.9,32.6,38.5z"/>
	<path class="st0" d="M33.4,31.6c0.5-1,1.1-1.9,1.8-2.7c-2.5-0.8-5.1-1.2-7.8-1.2l0,0v3.1l0,0C29.5,30.8,31.5,31.1,33.4,31.6z"/>
	<path class="st0" d="M48.4,46.1c0.7,2.2,1,4.4,1,6.7h3.1c0-2.9-0.5-5.8-1.5-8.6C50.2,44.9,49.3,45.6,48.4,46.1z"/>
	<path class="st0" d="M52.5,36.5c0,5.1-4.1,9.2-9.2,9.2s-9.2-4.1-9.2-9.2s4.1-9.2,9.2-9.2c0,0,0,0,0,0
		C48.4,27.3,52.5,31.4,52.5,36.5z M47.1,30.9c-0.4-0.3-1-0.6-1.5-0.7c-0.6-0.2-1.2-0.2-1.8-0.2c-0.8,0-1.6,0.1-2.3,0.4
		c-0.7,0.3-1.3,0.7-1.8,1.3c-0.5,0.6-0.9,1.3-1.1,2.1c-0.3,0.9-0.4,1.9-0.4,2.8c0,0.9,0.1,1.8,0.3,2.6c0.2,0.7,0.5,1.3,1,1.9
		c0.4,0.5,0.9,0.9,1.5,1.2c0.6,0.3,1.3,0.4,2,0.4c0.6,0,1.2-0.1,1.8-0.3c0.5-0.2,1-0.5,1.4-0.9c0.4-0.4,0.7-0.9,0.9-1.4
		c0.2-0.6,0.3-1.2,0.3-1.9c0-0.5-0.1-1.1-0.3-1.6c-0.2-0.4-0.4-0.8-0.8-1.2c-0.3-0.3-0.7-0.6-1.2-0.7c-0.5-0.2-1-0.3-1.5-0.3
		c-0.3,0-0.6,0-0.9,0.1c-0.3,0.1-0.6,0.1-0.9,0.3c-0.3,0.1-0.5,0.3-0.8,0.5c-0.2,0.2-0.4,0.4-0.6,0.7c0-1.1,0.3-2.1,1-2.9
		c0.6-0.7,1.5-1,2.3-1c0.8,0,1.6,0.2,2.2,0.6L47.1,30.9z M44.5,40.1c-0.4,0.4-0.9,0.6-1.5,0.6c-0.5,0-1.1-0.2-1.5-0.6
		c-0.4-0.5-0.6-1-0.5-1.6c0-0.6,0.2-1.1,0.5-1.6c0.4-0.4,0.9-0.6,1.5-0.5c0.5,0,1,0.1,1.4,0.5c0.4,0.4,0.5,1,0.5,1.6
		C45,39,44.8,39.6,44.5,40.1z"/>
</g>
</svg>
