<?xml version="1.0" encoding="utf-8"?>
<!-- Generator: Adobe Illustrator 23.0.3, SVG Export Plug-In . SVG Version: 6.00 Build 0)  -->
<svg version="1.1" id="Layer_2" xmlns="http://www.w3.org/2000/svg" xmlns:xlink="http://www.w3.org/1999/xlink" x="0px" y="0px"
	 viewBox="0 0 80 80" style="enable-background:new 0 0 80 80;" xml:space="preserve">
<style type="text/css">
	.st0{clip-path:url(#SVGID_2_);}
	.st1{clip-path:url(#SVGID_4_);}
	.st2{clip-path:url(#SVGID_6_);}
	.st3{clip-path:url(#SVGID_8_);}
	.st4{fill:#00AEEF;}
	.st5{clip-path:url(#SVGID_10_);}
	.st6{clip-path:url(#SVGID_12_);}
	.st7{clip-path:url(#SVGID_14_);}
	.st8{clip-path:url(#SVGID_16_);}
	.st9{clip-path:url(#SVGID_18_);}
	.st10{clip-path:url(#SVGID_20_);}
	.st11{clip-path:url(#SVGID_22_);}
	.st12{clip-path:url(#SVGID_24_);}
</style>
<g>
	<g>
		<defs>
			<rect id="SVGID_1_" x="32" y="53.8" width="34.6" height="2.4"/>
		</defs>
		<clipPath id="SVGID_2_">
			<use xlink:href="#SVGID_1_"  style="overflow:visible;"/>
		</clipPath>
		<g class="st0">
			<g>
				<g>
					<defs>
						<rect id="SVGID_3_" x="31.7" y="53.6" width="35.2" height="2.6"/>
					</defs>
					<clipPath id="SVGID_4_">
						<use xlink:href="#SVGID_3_"  style="overflow:visible;"/>
					</clipPath>
					<g class="st1">
						<g>
							<defs>
								<path id="SVGID_5_" d="M66.1,56.2H32.5c-0.2,0-0.5-0.2-0.5-0.4v-1.9c0-0.1,0.1-0.1,0.1-0.1c0,0,0,0,0,0h34.3
									c0.1,0,0.1,0,0.1,0.1c0,0,0,0,0,0v1.8C66.5,56,66.3,56.2,66.1,56.2"/>
							</defs>
							<clipPath id="SVGID_6_">
								<use xlink:href="#SVGID_5_"  style="overflow:visible;"/>
							</clipPath>
							<g class="st2">
								<g>
									<defs>
										<rect id="SVGID_7_" x="31.7" y="53.6" width="35.2" height="2.6"/>
									</defs>
									<clipPath id="SVGID_8_">
										<use xlink:href="#SVGID_7_"  style="overflow:visible;"/>
									</clipPath>
									<g class="st3">
										<rect x="29.8" y="51.6" class="st4" width="38.9" height="6.8"/>
									</g>
								</g>
							</g>
						</g>
					</g>
				</g>
			</g>
		</g>
	</g>
	<g>
		<defs>
			<path id="SVGID_9_" d="M53.7,50.7h-8.9c-0.1,0-0.1-0.1-0.1-0.1v-3.6c0-0.1,0-0.1,0.1-0.1h8.9c0.1,0,0.1,0.1,0.1,0.1v3.6
				C53.8,50.6,53.8,50.7,53.7,50.7"/>
		</defs>
		<clipPath id="SVGID_10_">
			<use xlink:href="#SVGID_9_"  style="overflow:visible;"/>
		</clipPath>
		<g class="st5">
			<rect x="42.5" y="44.6" class="st4" width="13.5" height="8.2"/>
		</g>
	</g>
	<g>
		<defs>
			<path id="SVGID_11_" d="M64.6,23.8H33.6c-0.1,0-0.2,0.1-0.2,0.2v20.6c0,0.1,0.1,0.2,0.2,0.2h31.1c0.1,0,0.2-0.1,0.2-0.2V24
				C64.9,23.9,64.8,23.8,64.6,23.8 M62.2,42.4H36c-0.1,0-0.2-0.1-0.2-0.2V26.5c0-0.1,0.1-0.2,0.2-0.2h26.1c0.1,0,0.2,0.1,0.2,0.2
				c0,0,0,0,0,0v15.7C62.4,42.3,62.3,42.4,62.2,42.4L62.2,42.4"/>
		</defs>
		<clipPath id="SVGID_12_">
			<use xlink:href="#SVGID_11_"  style="overflow:visible;"/>
		</clipPath>
		<g class="st6">
			<rect x="31.2" y="21.6" class="st4" width="35.9" height="25.4"/>
		</g>
	</g>
	<g>
		<defs>
			<path id="SVGID_13_" d="M24.7,31.6h-6.1c-0.1,0-0.1-0.1-0.1-0.2v-2.2c0-0.1,0.1-0.1,0.1-0.2h6.1c0.1,0,0.1,0.1,0.1,0.2
				c0,0,0,0,0,0v2.2C24.8,31.5,24.7,31.5,24.7,31.6C24.7,31.6,24.7,31.6,24.7,31.6"/>
		</defs>
		<clipPath id="SVGID_14_">
			<use xlink:href="#SVGID_13_"  style="overflow:visible;"/>
		</clipPath>
		<g class="st7">
			<rect x="16.2" y="26.9" class="st4" width="10.7" height="6.8"/>
		</g>
	</g>
	<g>
		<defs>
			<path id="SVGID_15_" d="M18.6,35.4c-0.1,0-0.1-0.1-0.1-0.2v-2.2c0-0.1,0.1-0.1,0.1-0.2h6.1c0.1,0,0.1,0.1,0.1,0.2v2.2
				c0,0.1-0.1,0.1-0.1,0.2c0,0,0,0,0,0H18.6z"/>
		</defs>
		<clipPath id="SVGID_16_">
			<use xlink:href="#SVGID_15_"  style="overflow:visible;"/>
		</clipPath>
		<g class="st8">
			<rect x="16.2" y="30.8" class="st4" width="10.7" height="6.8"/>
		</g>
	</g>
	<g>
		<defs>
			<rect id="SVGID_17_" x="13.4" y="24.2" width="16.2" height="32"/>
		</defs>
		<clipPath id="SVGID_18_">
			<use xlink:href="#SVGID_17_"  style="overflow:visible;"/>
		</clipPath>
		<g class="st9">
			<g>
				<g>
					<defs>
						<rect id="SVGID_19_" x="13.4" y="24" width="16.5" height="32.2"/>
					</defs>
					<clipPath id="SVGID_20_">
						<use xlink:href="#SVGID_19_"  style="overflow:visible;"/>
					</clipPath>
					<g class="st10">
						<g>
							<defs>
								<path id="SVGID_21_" d="M29.4,24.2H13.8c-0.2,0-0.3,0.1-0.3,0.3v31.4c0,0.2,0.1,0.3,0.3,0.3c0,0,0,0,0,0h15.6
									c0.2,0,0.3-0.1,0.3-0.3c0,0,0,0,0,0V24.5C29.7,24.3,29.6,24.2,29.4,24.2 M27,53.7H16.2c-0.1,0-0.2-0.1-0.2-0.2V26.9
									c0-0.1,0.1-0.2,0.2-0.2H27c0.1,0,0.2,0.1,0.2,0.2c0,0,0,0,0,0v26.6C27.2,53.6,27.1,53.7,27,53.7L27,53.7"/>
							</defs>
							<clipPath id="SVGID_22_">
								<use xlink:href="#SVGID_21_"  style="overflow:visible;"/>
							</clipPath>
							<g class="st11">
								<g>
									<defs>
										<rect id="SVGID_23_" x="13.4" y="24" width="16.5" height="32.2"/>
									</defs>
									<clipPath id="SVGID_24_">
										<use xlink:href="#SVGID_23_"  style="overflow:visible;"/>
									</clipPath>
									<g class="st12">
										<rect x="11.3" y="22" class="st4" width="20.6" height="36.4"/>
									</g>
								</g>
							</g>
						</g>
					</g>
				</g>
			</g>
		</g>
	</g>
</g>
</svg>
