<svg id="Layer_1" data-name="Layer 1" xmlns="http://www.w3.org/2000/svg" xmlns:xlink="http://www.w3.org/1999/xlink" viewBox="0 0 138 113"><defs><style>.cls-1{fill:none;clip-rule:evenodd;}.cls-2{clip-path:url(#clip-path);}.cls-3{fill:#d8d8d8;}.cls-4{clip-path:url(#clip-path-2);}</style><clipPath id="clip-path"><path class="cls-1" d="M123.93,81.7H13.54a.83.83,0,0,1-.83-.83V18a.83.83,0,0,1,.83-.83H123.93a.83.83,0,0,1,.82.83v62.9a.83.83,0,0,1-.82.83M19.72,75.08h98a.41.41,0,0,0,.41-.42V24.18a.41.41,0,0,0-.41-.42h-98a.41.41,0,0,0-.41.42V74.66a.41.41,0,0,0,.41.42"/></clipPath><clipPath id="clip-path-2"><path class="cls-1" d="M128.13,95.33H9.34a1.64,1.64,0,0,1-1.65-1.62V89.27a.4.4,0,0,1,.41-.4H129.37a.4.4,0,0,1,.41.4v4.44a1.64,1.64,0,0,1-1.65,1.62"/></clipPath></defs><title>SRT_Placeholder_Icons</title><g class="cls-2"><rect class="cls-3" x="7.05" y="11.48" width="123.36" height="75.88"/></g><g class="cls-4"><rect class="cls-3" x="2.02" y="83.21" width="133.42" height="17.78"/></g></svg>