<svg id="Layer_1" data-name="Layer 1" xmlns="http://www.w3.org/2000/svg" xmlns:xlink="http://www.w3.org/1999/xlink" viewBox="0 0 138 113"><defs><style>.cls-1,.cls-2{fill:none;}.cls-2{clip-rule:evenodd;}.cls-3{clip-path:url(#clip-path);}.cls-4{isolation:isolate;}.cls-5{clip-path:url(#clip-path-2);}.cls-6{clip-path:url(#clip-path-3);}.cls-7{fill:#d8d8d8;}.cls-8{clip-path:url(#clip-path-5);}.cls-9{clip-path:url(#clip-path-6);}.cls-10{clip-path:url(#clip-path-7);}.cls-11{clip-path:url(#clip-path-8);}.cls-12{clip-path:url(#clip-path-9);}.cls-13{clip-path:url(#clip-path-10);}.cls-14{clip-path:url(#clip-path-11);}</style><clipPath id="clip-path"><rect class="cls-1" x="50.6" y="88.03" width="79.47" height="5.55"/></clipPath><clipPath id="clip-path-2"><rect class="cls-1" x="49.93" y="87.58" width="81" height="6"/></clipPath><clipPath id="clip-path-3"><path class="cls-2" d="M129,93.58H51.68a1.06,1.06,0,0,1-1.08-1V88.29a.26.26,0,0,1,.27-.26H129.8a.26.26,0,0,1,.27.26v4.25a1.06,1.06,0,0,1-1.07,1"/></clipPath><clipPath id="clip-path-5"><path class="cls-2" d="M100.52,80.84H80.05a.28.28,0,0,1-.26-.28V72.2a.28.28,0,0,1,.26-.28h20.47a.28.28,0,0,1,.26.28v8.36a.28.28,0,0,1-.26.28"/></clipPath><clipPath id="clip-path-6"><path class="cls-2" d="M125.69,19.06H54.25a.53.53,0,0,0-.53.53V66.93a.53.53,0,0,0,.53.53h71.44a.53.53,0,0,0,.53-.53V19.59a.53.53,0,0,0-.53-.53M120,61.73H59.91a.48.48,0,0,1-.48-.48v-36a.48.48,0,0,1,.48-.48H120a.48.48,0,0,1,.48.48v36a.48.48,0,0,1-.48.48"/></clipPath><clipPath id="clip-path-7"><path class="cls-2" d="M33.7,36.89h-14a.34.34,0,0,1-.31-.36v-5a.34.34,0,0,1,.31-.36h14a.33.33,0,0,1,.3.36v5a.33.33,0,0,1-.3.36"/></clipPath><clipPath id="clip-path-8"><path class="cls-2" d="M19.68,45.81a.34.34,0,0,1-.31-.36v-5a.34.34,0,0,1,.31-.36h14a.34.34,0,0,1,.3.36v5a.33.33,0,0,1-.3.36Z"/></clipPath><clipPath id="clip-path-9"><rect class="cls-1" x="7.93" y="19.95" width="37.37" height="73.62"/></clipPath><clipPath id="clip-path-10"><rect class="cls-1" x="7.93" y="19.58" width="38" height="74"/></clipPath><clipPath id="clip-path-11"><path class="cls-2" d="M44.58,20H8.64a.71.71,0,0,0-.71.71V92.85a.71.71,0,0,0,.71.72H44.58a.71.71,0,0,0,.71-.72V20.66a.71.71,0,0,0-.71-.71M39.06,87.84H14.15a.49.49,0,0,1-.48-.48V26.16a.48.48,0,0,1,.48-.48H39.06a.47.47,0,0,1,.48.48v61.2a.48.48,0,0,1-.48.48"/></clipPath></defs><title>SRT_Placeholder_Icons</title><g class="cls-3"><g class="cls-4"><g class="cls-5"><g class="cls-6"><g class="cls-5"><rect class="cls-7" x="45.6" y="83.03" width="89.47" height="15.55"/></g></g></g></g></g><g class="cls-8"><rect class="cls-7" x="74.79" y="66.92" width="30.99" height="18.92"/></g><g class="cls-9"><rect class="cls-7" x="48.72" y="14.06" width="82.5" height="58.41"/></g><g class="cls-10"><rect class="cls-7" x="14.37" y="26.16" width="24.63" height="15.73"/></g><g class="cls-11"><rect class="cls-7" x="14.37" y="35.07" width="24.63" height="15.73"/></g><g class="cls-12"><g class="cls-4"><g class="cls-13"><g class="cls-14"><g class="cls-13"><rect class="cls-7" x="2.93" y="14.95" width="47.37" height="83.62"/></g></g></g></g></g></svg>