<?xml version="1.0" encoding="utf-8"?>
<!-- Generator: Adobe Illustrator 23.0.3, SVG Export Plug-In . SVG Version: 6.00 Build 0)  -->
<svg version="1.1" xmlns="http://www.w3.org/2000/svg" xmlns:xlink="http://www.w3.org/1999/xlink" x="0px" y="0px"
	 viewBox="0 0 80 80" style="enable-background:new 0 0 80 80;" xml:space="preserve">
<style type="text/css">
	.st0{fill:#00AEEF;}
</style>
<g id="Layer_2">
	<path class="st0" d="M33.1,56.5c0-0.6,0-1.2,0.1-1.8c0.1-1.1,0.1-2.2,0.2-3.4c0.1-1.3,0.2-2.7,0.3-4c0-0.4,0.1-0.8,0.1-1.3l2.2,2
		l3.8-8.4c-0.1,0-0.2,0-0.3,0c-1.2,0-2.5,0-3.7,0l-1.9,0c-0.1,0-0.2,0-0.4,0l0.1-0.2c2.1-5.2,4.2-10.4,6.2-15.6
		c0-0.1,0.1-0.2,0.3-0.2h6.6h0.3l-7.5,13.3l6.9,0.1l-8.1,12c1.1,0.2,2.1,0.1,3.2,0.3c0,0-0.1,0-0.1,0.1l-7,6.2
		C33.9,55.8,33.5,56.1,33.1,56.5L33.1,56.5z"/>
</g>
<g id="Layer_3">
</g>
</svg>
