<?xml version="1.0" encoding="UTF-8"?>
<svg width="80px" height="80px" viewBox="0 0 80 80" version="1.1" xmlns="http://www.w3.org/2000/svg" xmlns:xlink="http://www.w3.org/1999/xlink">
    <!-- Generator: Sketch 51.3 (57544) - http://www.bohemiancoding.com/sketch -->
    <title>icon/1blue/education/highschool</title>
    <desc>Created with Sketch.</desc>
    <defs>
        <polygon id="path-1" points="0 0.00443813326 31.3716244 0.00443813326 31.3716244 8.73611111 0 8.73611111"></polygon>
        <polygon id="path-3" points="0.369115845 0.381305556 22.6247314 0.381305556 22.6247314 26.24084 0.369115845 26.24084"></polygon>
    </defs>
    <g id="icon/1blue/education/highschool" stroke="none" stroke-width="1" fill="none" fill-rule="evenodd">
        <g id="Group-7" transform="translate(24.000000, 22.000000)">
            <g id="Group-3" transform="translate(0.000000, 27.882738)">
                <mask id="mask-2" fill="white">
                    <use xlink:href="#path-1"></use>
                </mask>
                <g id="Clip-2"></g>
                <path d="M31.3709639,6.12355139 C31.31495,5.55621806 30.9691028,2.86189861 29.3811861,1.63987083 C28.5759222,1.02114861 27.9844361,0.811995833 27.1776306,0.5730375 C25.3188944,0.0786763889 22.5372139,-0.0816569444 21.0382,0.0468152778 C20.9246306,0.0565791667 20.8321306,0.137773611 20.8028389,0.248773611 C20.2113528,2.46055139 17.9774778,5.12300972 15.8566583,6.89952361 C15.7579917,6.98225972 15.6141028,6.98225972 15.5154361,6.89952361 C13.3946167,5.12300972 11.1602278,2.46055139 10.5692556,0.248773611 C10.5399639,0.137773611 10.4474639,0.0565791667 10.3333806,0.0468152778 C8.83488056,-0.0816569444 6.05268611,0.0786763889 4.19395,0.5730375 C3.38714444,0.811995833 2.79617222,1.02114861 1.99039444,1.63987083 C0.402991667,2.86189861 0.0571444444,5.55621806 0.000616666667,6.12355139 L0.00113055556,6.12406528 L0.000616666667,6.12457917 C-0.00555,6.18675972 0.0324777778,6.24482917 0.0920888889,6.26384306 C0.954394444,6.5439125 6.96483889,8.7361625 15.6860472,8.7361625 C24.4072556,8.7361625 30.4171861,6.5439125 31.2794917,6.26384306 C31.3396167,6.24482917 31.3771306,6.18675972 31.3709639,6.12457917 L31.3709639,6.12406528 L31.3709639,6.12355139" id="Fill-1" fill="#00AEEF" mask="url(#mask-2)"></path>
            </g>
            <g id="Group-6" transform="translate(4.111111, 0.132738)">
                <mask id="mask-4" fill="white">
                    <use xlink:href="#path-3"></use>
                </mask>
                <g id="Clip-5"></g>
                <path d="M19.8614458,14.3096472 C19.5644181,16.2598556 18.4960431,16.9803278 18.1388903,16.9803278 L18.1383764,16.9803278 L17.8953069,16.9602861 C17.8392931,16.9551472 17.7868764,16.9859806 17.7632375,17.0363417 L17.6589181,17.2568 C17.5381542,17.5116889 16.9574597,18.6545778 16.4769736,19.4922167 C16.0781958,20.1875083 15.5601958,20.8103417 14.9198903,21.2928833 C13.9399042,22.0308278 12.8448069,22.4342306 11.5801264,22.4342306 C9.49116806,22.4342306 7.56716806,21.0349111 6.00391806,18.2768694 C5.49002917,17.307675 5.12465417,16.3240917 4.92937639,15.5044389 C4.8687375,15.2505778 5.19968194,15.0948694 5.35487639,15.30505 C5.81583472,15.9304528 6.4967375,16.5173139 7.43252917,16.6005639 C7.5928625,16.6288278 7.76141806,16.6493833 7.94025139,16.6586333 C8.00962639,16.6622306 8.07797361,16.6637722 8.14529306,16.6637722 C10.2116403,16.6637722 11.0246125,15.0881889 11.2779597,14.4103694 C11.2825847,14.39855 11.2877236,14.3841611 11.2928625,14.3677167 C11.3848486,14.08405 11.7815708,14.0861056 11.8720153,14.3708 C11.8766403,14.384675 11.8807514,14.3970083 11.8848625,14.4078 C12.0791125,14.9376194 12.8792375,16.6632583 15.0185569,16.6637722 C15.0858764,16.6637722 15.1537097,16.6622306 15.2230847,16.6586333 C15.4471403,16.6468139 15.6552653,16.6195778 15.8505431,16.5784667 C18.2632514,16.2464944 18.5099181,13.9550639 18.5099181,13.3723139 C18.5099181,13.1611056 18.5181403,12.8234806 18.5227653,12.6441333 C18.5248208,12.5763 18.5828903,12.5192583 18.6502097,12.5279944 C19.3249458,12.6112444 19.6846681,12.8707583 19.7663764,13.0151611 C19.8763486,13.2088972 19.9729597,13.5778694 19.8614458,14.3096472 M6.4088625,12.9257444 C6.63754306,12.6960361 7.1072375,12.5747583 7.77632083,12.5747583 C8.85600139,12.5773278 9.55283472,12.7818556 9.8498625,13.1826889 C9.87658472,13.2186611 9.89097361,13.2608 9.89354306,13.3055083 C9.90330694,13.4766333 9.85140417,13.848175 9.57852917,14.3039944 C9.32415417,14.7279528 8.82670972,15.2269389 7.89554306,15.1837722 C7.02347361,15.1390639 6.21564028,14.9093556 6.21409861,13.5470361 C6.21409861,13.3358278 6.23670972,13.0978972 6.4088625,12.9257444 M16.9492375,13.5470361 C16.9482097,14.3517861 16.7441958,15.1077167 15.2688208,15.1832583 C14.3397097,15.2248833 13.8391819,14.7274389 13.5853208,14.3039944 C13.3124458,13.848175 13.2600292,13.4766333 13.2697931,13.3055083 C13.2723625,13.2608 13.2872653,13.2181472 13.3134736,13.1826889 C13.6105014,12.7818556 14.3078486,12.5773278 15.3962653,12.5747583 C16.0560986,12.5747583 16.5257931,12.6960361 16.7549875,12.9257444 C16.9266264,13.0978972 16.9497514,13.3358278 16.9492375,13.5470361 M9.41305694,11.0166472 C13.6156403,9.59368889 14.9553486,7.64502222 16.2236264,6.65938333 C16.2765569,6.61827222 16.3490153,6.63214722 16.3834458,6.68970278 C17.0802792,7.85314722 17.6044458,9.32338333 17.9148347,11.2514944 C17.9292236,11.3424528 17.8495708,11.4215917 17.7591264,11.4066889 C17.3582931,11.3403972 17.0001125,11.276675 16.9687653,11.2705083 C16.3639181,11.156425 15.7929875,11.0983556 15.2657375,11.0983556 C13.4486264,11.0983556 12.3072792,12.3023972 12.0883625,12.5536889 C12.0631819,12.5829806 12.0266958,12.599425 11.9881542,12.599425 L11.1916264,12.599425 C11.1448625,12.599425 11.1016958,12.5757861 11.0780569,12.5357028 C10.9516403,12.3244944 10.4737236,11.6379389 9.41254306,11.2705083 C9.29126528,11.2283694 9.29126528,11.0577583 9.41305694,11.0166472 M22.5716958,24.7467306 C21.7571819,24.3489806 20.2751264,24.25905 21.1662097,15.0979528 C21.2232514,14.5126333 21.2967375,14.1554806 21.2967375,14.1554806 C21.4981819,12.497675 22.1646958,10.6101611 21.4144181,7.78068889 C20.2967097,3.56268889 16.3017375,0.381202778 11.6582375,0.381202778 C9.33854306,0.381202778 7.21258472,1.16488333 5.51777917,2.47889722 C4.66472361,3.09453611 3.88155694,3.93731389 3.17804306,5.04320278 C2.71040417,5.77703611 1.89383472,7.69332778 1.70318194,9.11320278 C1.41489028,10.7324667 1.46062639,12.4401194 1.66155694,14.0984389 C1.66155694,14.0984389 1.72168194,14.4571333 1.79208472,15.0403972 C2.91904306,24.3623417 1.12814028,24.2379806 0.420001389,24.6804389 C0.344973611,24.7266889 0.356279167,24.8469389 0.431820833,24.8921611 C2.0937375,25.8891056 4.87439028,26.2786333 6.67145972,26.1023694 C6.75625139,26.0941472 6.82819583,26.0386472 6.86776528,25.9631056 C7.17095972,25.3798417 7.45051528,24.1141333 7.51372361,22.8607583 C7.51937639,22.7538694 7.64219583,22.6932306 7.72955694,22.7564389 C8.89454306,23.6023 10.0723764,24.03705 11.8247375,24.03705 C13.0570431,24.03705 14.3145292,23.6094944 14.8381819,23.2816333 C14.9281125,23.2256194 15.0432236,23.2883139 15.0488764,23.394175 C15.1228764,24.374675 15.5812653,25.530925 15.9445847,26.058175 C15.9867236,26.1193278 16.0514736,26.1609528 16.1254736,26.1707167 C18.3295431,26.4410222 20.9339319,25.9070917 22.5588486,24.9610222 C22.6359319,24.9163139 22.6518625,24.7857861 22.5716958,24.7467306" id="Fill-4" fill="#00AEEF" mask="url(#mask-4)"></path>
            </g>
        </g>
    </g>
</svg>