<?xml version="1.0" encoding="UTF-8"?>
<svg width="14px" height="14px" viewBox="0 0 14 14" version="1.1" xmlns="http://www.w3.org/2000/svg" xmlns:xlink="http://www.w3.org/1999/xlink">
    <!-- Generator: Sketch 53.2 (72643) - https://sketchapp.com -->
    <title>Group 3</title>
    <desc>Created with Sketch.</desc>
    <g id="Page-3" stroke="none" stroke-width="1" fill="none" fill-rule="evenodd">
        <g id="D-chart-A" transform="translate(-941.000000, -511.000000)">
            <g id="Group-3" transform="translate(941.000000, 511.000000)">
                <circle id="Oval" fill="#00AEEF" cx="7" cy="7" r="7"></circle>
                <path d="M7.21395316,11 L7.21395316,9.77999659 C7.21395316,9.73067076 7.21492013,9.7296467 7.26036817,9.72947602 C7.50807607,9.72845195 7.74965977,9.6854412 7.98608624,9.60829493 C8.22573598,9.52995392 8.44910823,9.41559993 8.65765346,9.26847585 C8.75515722,9.19986346 8.8473426,9.12374125 8.93485424,9.04130398 C9.15194112,8.83717358 9.33260511,8.6016385 9.47539575,8.33350401 C9.58692071,8.124936 9.67056443,7.90459123 9.7268104,7.67264038 C9.75984886,7.53626899 9.78208939,7.39767878 9.79498245,7.25704045 C9.80642504,7.13244581 9.80932598,7.00750981 9.80465225,6.8827445 C9.79627176,6.6641065 9.76242748,6.44939409 9.70456987,6.2391193 C9.65718788,6.06656426 9.59449538,5.90083632 9.51600888,5.74176481 C9.43816704,5.58354668 9.34678748,5.43471582 9.24090323,5.29578426 C9.17240885,5.20600785 9.10053005,5.11913296 9.02172122,5.03942652 C8.88698875,4.90305513 8.74129719,4.78136201 8.58255139,4.67724868 C8.38770504,4.54906981 8.18061027,4.44990613 7.96142826,4.37975764 C7.82911324,4.3374296 7.69421961,4.30704898 7.55706969,4.28878648 C7.4439331,4.27376685 7.33063534,4.26250213 7.21653177,4.26523297 C6.96173268,4.27103601 6.71080152,4.3061956 6.46599456,4.38504864 C6.32707184,4.42993685 6.19217821,4.48608978 6.06228064,4.55436081 C5.88242246,4.64908687 5.71529618,4.76446493 5.56057947,4.90032429 C5.50143256,4.95221027 5.44389729,5.00648575 5.38942411,5.0640041 C5.23051715,5.23246288 5.09240026,5.41850145 4.97894134,5.6245093 C4.89191319,5.7822154 4.81938973,5.94708995 4.76346608,6.11998635 C4.70834826,6.29066394 4.6699914,6.46594982 4.64791204,6.64481994 C4.63469665,6.75081072 4.62567151,6.85731353 4.62776664,6.96449906 C4.62857245,6.99982932 4.63018408,7.00221881 4.66402836,7.00221881 C4.94993195,7.00238949 5.23615787,7.00512033 5.52190029,7.00085339 C5.64083877,6.99914661 5.7599384,6.99965864 5.87871571,6.99726916 C5.89886111,6.9969278 5.91868419,6.99880526 5.93850727,7.00204813 C5.98653392,7.00972862 6.02424611,7.0494965 6.03230428,7.09984639 C6.03488289,7.11571941 6.03230428,7.12817887 6.02086169,7.13995562 C5.93447819,7.22802526 5.85147912,7.3198498 5.76396748,7.40689537 C5.68822076,7.48233487 5.61682544,7.56255334 5.54188454,7.6390169 C5.42665282,7.75644308 5.31480553,7.87762417 5.19909032,7.99470899 C5.09642934,8.09848097 4.99844209,8.20737327 4.89513645,8.31046254 C4.79473175,8.41082096 4.6998066,8.51698242 4.59940191,8.61717017 C4.49899721,8.71735791 4.40423322,8.82386073 4.30382852,8.92387779 C4.22679249,9.00085339 4.15281857,9.08124253 4.07674952,9.15941287 C4.01373469,9.22409968 3.93685982,9.22358764 3.87481198,9.15787677 C3.79858176,9.07697559 3.72090108,8.99743984 3.64676599,8.91414917 C3.5445885,8.79928315 3.4362868,8.69107356 3.33394814,8.57637822 C3.23354344,8.46390169 3.12749803,8.35774023 3.02725449,8.2452637 C2.92975073,8.13585936 2.8264451,8.03259942 2.7291025,7.92336576 C2.62337941,7.80457416 2.5112098,7.69278034 2.40564788,7.57415941 C2.30862761,7.46560847 2.20725593,7.36217785 2.10942984,7.25448029 C2.08235442,7.22478239 2.05672946,7.19371906 2.02884822,7.16487455 C2.02030657,7.15599932 2.0127319,7.14575866 2,7.14302782 L2,7.10479604 C2.00886398,7.09848097 2.01144259,7.08789896 2.015794,7.07834101 C2.03932383,7.02986858 2.07623021,7.00358423 2.12812478,7.00256016 C2.14021202,7.00238949 2.15229926,7.00238949 2.16422534,7.00238949 L2.84787981,7.00238949 C3.02789915,7.00238949 3.20791849,7.00238949 3.38777666,7.00221881 C3.42468305,7.00221881 3.42742282,6.99965864 3.42726166,6.96074415 C3.42693933,6.84331797 3.43419168,6.72623315 3.44466729,6.609319 C3.45320894,6.51339819 3.46497386,6.41798942 3.48028436,6.32326336 C3.50655397,6.16026626 3.54297686,5.99982932 3.58794141,5.84144052 C3.63870783,5.66274108 3.70156149,5.48882062 3.77618007,5.3198498 C3.87126638,5.10462536 3.98263018,4.89930022 4.11236659,4.7052398 C4.22566435,4.53558628 4.35024354,4.37600273 4.48658764,4.22665984 C4.5810293,4.12305854 4.6796612,4.02406554 4.78457847,3.93241167 C4.91882745,3.81498549 5.0588783,3.70609319 5.20650383,3.60812425 C5.34639352,3.51527564 5.49208509,3.43352108 5.64196691,3.36030039 C5.79184872,3.28690903 5.94624311,3.22563577 6.10418308,3.17460317 C6.20652174,3.1416624 6.30982738,3.11213518 6.41442232,3.08875235 C6.61523172,3.0442055 6.81749158,3.01263014 7.02281355,3.00563236 C7.03087171,3.00546168 7.03876871,3.00426694 7.04602106,3 L7.40589857,3 C7.41218394,3.00375491 7.4189528,3.00563236 7.42604398,3.00563236 C7.45908244,3.00563236 7.49195975,3.00921659 7.52483705,3.01160608 C7.62153499,3.01877453 7.71758828,3.03157535 7.81331925,3.04778973 C7.96255641,3.07305001 8.10953728,3.10752688 8.25506769,3.15104967 C8.44314519,3.20720259 8.62574314,3.27888718 8.80286154,3.3655914 C9.06410716,3.49342891 9.30923644,3.65028162 9.5369601,3.83751493 C9.64816274,3.92899812 9.75469164,4.02679638 9.85622448,4.13039768 C9.95695151,4.23331627 10.051232,4.34254992 10.1408388,4.45656255 C10.2367309,4.57876771 10.3258542,4.70660522 10.4069193,4.84024578 C10.5029726,4.99880526 10.5888726,5.16367981 10.6631688,5.33538146 C10.7221546,5.47124083 10.7737268,5.61000171 10.8180467,5.75166411 C10.8821897,5.95613586 10.9306998,6.1645332 10.9603538,6.37753883 C10.976309,6.49155146 10.9933923,6.60556409 10.9945204,6.7212835 C10.9946816,6.73101212 10.9959709,6.74022871 11,6.74910394 L11,7.24475166 C10.9953263,7.25448029 10.9946816,7.26489162 10.9945204,7.27564431 C10.9943593,7.30943847 10.9924253,7.34306196 10.9893632,7.37685612 C10.9771148,7.50861922 10.960515,7.63969961 10.9360182,7.76941458 C10.8900867,8.01399556 10.8240097,8.25243216 10.7358534,8.48370029 C10.6576893,8.68834272 10.5638923,8.88445127 10.4557517,9.07305001 C10.3002292,9.34391534 10.115375,9.59037378 9.90554043,9.81583888 C9.8412363,9.88513398 9.77306425,9.9505035 9.70344173,10.0141662 C9.59449538,10.1140126 9.48103646,10.2077146 9.36242031,10.2942482 C9.17498747,10.4307902 8.97691784,10.547363 8.76982308,10.6468681 C8.57916697,10.7385219 8.38206432,10.8110599 8.17964329,10.8680662 C8.03653033,10.9081755 7.89148342,10.9388974 7.74482487,10.9602321 C7.65989184,10.9725209 7.57447532,10.9825909 7.48873648,10.9885646 C7.45908244,10.9906127 7.42878375,10.989418 7.39993553,11 L7.21395316,11 Z" id="Fill-1" fill="#FFFFFF"></path>
            </g>
        </g>
    </g>
</svg>