<?xml version="1.0" encoding="utf-8"?>
<!-- Generator: Adobe Illustrator 23.0.3, SVG Export Plug-In . SVG Version: 6.00 Build 0)  -->
<svg version="1.1" id="Layer_3" xmlns="http://www.w3.org/2000/svg" xmlns:xlink="http://www.w3.org/1999/xlink" x="0px" y="0px"
	 viewBox="0 0 80 80" style="enable-background:new 0 0 80 80;" xml:space="preserve">
<style type="text/css">
	.st0{clip-path:url(#SVGID_2_);}
	.st1{fill:#00AEEF;}
	.st2{clip-path:url(#SVGID_4_);}
</style>
<g>
	<g>
		<defs>
			<path id="SVGID_1_" d="M63.6,50.9H16.4c-0.2,0-0.4-0.2-0.4-0.4l0,0V23.6c0-0.2,0.2-0.4,0.4-0.4h47.2c0.2,0,0.4,0.2,0.4,0.4v26.9
				C64,50.7,63.8,50.9,63.6,50.9 M19,48.1H61c0.1,0,0.2-0.1,0.2-0.2c0,0,0,0,0,0V26.3c0-0.1-0.1-0.2-0.2-0.2c0,0,0,0,0,0H19
				c-0.1,0-0.2,0.1-0.2,0.2c0,0,0,0,0,0v21.6C18.8,48,18.9,48.1,19,48.1C19,48.1,19,48.1,19,48.1"/>
		</defs>
		<clipPath id="SVGID_2_">
			<use xlink:href="#SVGID_1_"  style="overflow:visible;"/>
		</clipPath>
		<g class="st0">
			<rect x="13.6" y="20.8" class="st1" width="52.8" height="32.5"/>
		</g>
	</g>
	<g>
		<defs>
			<path id="SVGID_3_" d="M65.4,56.7H14.6c-0.4,0-0.7-0.3-0.7-0.7v-1.9C13.9,54,14,54,14,54c0,0,0,0,0,0h51.9c0.1,0,0.2,0.1,0.2,0.2
				c0,0,0,0,0,0V56C66.1,56.4,65.8,56.7,65.4,56.7"/>
		</defs>
		<clipPath id="SVGID_4_">
			<use xlink:href="#SVGID_3_"  style="overflow:visible;"/>
		</clipPath>
		<g class="st2">
			<rect x="11.4" y="51.5" class="st1" width="57.1" height="7.6"/>
		</g>
	</g>
</g>
</svg>
