<?xml version="1.0" encoding="UTF-8"?>
<svg width="80px" height="80px" viewBox="0 0 80 80" version="1.1" xmlns="http://www.w3.org/2000/svg" xmlns:xlink="http://www.w3.org/1999/xlink">
    <!-- Generator: Sketch 51.3 (57544) - http://www.bohemiancoding.com/sketch -->
    <title>icon/2blue/media/4k video creation</title>
    <desc>Created with Sketch.</desc>
    <defs></defs>
    <g id="icon/2blue/media/4k-video-creation" stroke="none" stroke-width="1" fill="none" fill-rule="evenodd">
        <g id="4k-video-editing-copy" transform="translate(16.000000, 28.000000)">
            <path d="M2.93522267,2.97941495 L2.93522267,22.020585 L35.2226721,22.020585 L35.2226721,2.97941495 L2.93522267,2.97941495 Z M0,0 L38.1578947,0 L38.1578947,25 L0,25 L0,0 Z" id="Rectangle-3" fill="#00AEEF" fill-rule="nonzero"></path>
            <polygon id="Rectangle-3-Copy" fill="#00AEEF" points="47.3684211 3.94736842 47.3684211 22.3684211 35.5263158 13.1578947"></polygon>
            <path d="M13.3298934,18.4210526 L13.3298934,16.0526316 L7.89473684,16.0526316 L7.89473684,14.2505721 L13.3298934,6.8020595 L15.5658755,6.8020595 L15.5658755,14.1647597 L17.0622635,14.1647597 L17.0622635,16.0526316 L15.5658755,16.0526316 L15.5658755,18.4210526 L13.3298934,18.4210526 Z M13.3298934,14.1647597 L13.3298934,10.0457666 L10.371517,14.1647597 L13.3298934,14.1647597 Z M24.2174063,12.2254005 L28.9473684,18.4210526 L25.8169935,18.4210526 L22.6178191,13.9244851 C22.526086,13.7986264 22.4429542,13.6927922 22.3684211,13.6069794 C22.2938879,13.5211666 22.2164893,13.4525174 22.1362229,13.4010297 C22.0559565,13.3495421 21.9670914,13.3152175 21.869625,13.2980549 C21.7721587,13.2808924 21.6546275,13.2723112 21.5170279,13.2723112 L21.4138287,13.2723112 L21.4138287,18.4210526 L18.9026488,18.4210526 L18.9026488,6.57894737 L21.4138287,6.57894737 L21.4138287,11.3329519 L21.5170279,11.3329519 C21.6546275,11.3329519 21.7721587,11.3272312 21.869625,11.3157895 C21.9670914,11.3043478 22.0645563,11.2700232 22.1620227,11.2128146 C22.2594891,11.1556061 22.3598206,11.072655 22.4630203,10.9639588 C22.56622,10.8552626 22.6866178,10.7036623 22.8242174,10.5091533 L25.6449948,6.57894737 L28.5517716,6.57894737 L24.2174063,12.2254005 Z" id="4K" fill="#003C71"></path>
        </g>
    </g>
</svg>