<svg id="Layer_1" data-name="Layer 1" xmlns="http://www.w3.org/2000/svg" width="80" height="80" viewBox="0 0 80 80"><title>icon project athena</title><path d="M26.66,36.73,25.6,35.66,44.06,17.2v2.12Zm17.4-15.29L27.72,37.79l1.06,1.06L44.06,23.57ZM35.89,60.68V62.8L54.36,44.34,53.3,43.27Zm0-2.12L52.23,42.21l-1.06-1.06L35.89,56.43ZM19.61,35.84H17.48L36,54.3,37,53.24Zm2.12,0L38.07,52.18l1.06-1.06L23.85,35.84Zm38.66,8.28h2.13L44.05,25.65,43,26.72Zm-2.12,0L41.93,27.78l-1.06,1.06L56.15,44.12Z" fill="#00aeef"/></svg>