<?xml version="1.0" encoding="UTF-8"?>
<svg width="80px" height="80px" viewBox="0 0 80 80" version="1.1" xmlns="http://www.w3.org/2000/svg" xmlns:xlink="http://www.w3.org/1999/xlink">
    <!-- Generator: Sketch 51.3 (57544) - http://www.bohemiancoding.com/sketch -->
    <title>icon/2blue/productivity/home</title>
    <desc>Created with Sketch.</desc>
    <defs>
        <polygon id="path-1" points="0.000228 0.0547651852 41.84332 0.0547651852 41.84332 33.9997696 0.000228 33.9997696"></polygon>
    </defs>
    <g id="icon/2blue/productivity/home" stroke="none" stroke-width="1" fill="none" fill-rule="evenodd">
        <g id="Group-32" transform="translate(19.000000, 23.000000)">
            <g id="Group-3">
                <mask id="mask-2" fill="white">
                    <use xlink:href="#path-1"></use>
                </mask>
                <g id="Clip-2"></g>
                <path d="M39.212428,23.7342377 C39.212428,23.8164296 39.146308,23.8832584 39.064988,23.8832584 L31.971148,23.8832584 C31.889828,23.8832584 31.823708,23.9500873 31.823708,24.0330473 L31.823708,31.1914199 C31.823708,31.2736118 31.757588,31.3404407 31.676268,31.3404407 L2.778788,31.3404407 C2.697468,31.3404407 2.631348,31.2736118 2.631348,31.1914199 L2.631348,7.62847548 C2.631348,7.54705178 2.697468,7.47945474 2.778788,7.47945474 L39.064988,7.47945474 C39.146308,7.47945474 39.212428,7.54705178 39.212428,7.62847548 L39.212428,23.7342377 Z M3.536508,2.4373303 C4.187828,2.4373303 4.715268,2.97196141 4.715268,3.62872807 C4.715268,4.28779919 4.187828,4.82012585 3.536508,4.82012585 C2.885948,4.82012585 2.357748,4.28779919 2.357748,3.62872807 C2.357748,2.97196141 2.885948,2.4373303 3.536508,2.4373303 Z M38.307268,2.4373303 C38.957828,2.4373303 39.486028,2.97196141 39.486028,3.62872807 C39.486028,4.28779919 38.957828,4.82012585 38.307268,4.82012585 C37.655948,4.82012585 37.128508,4.28779919 37.128508,3.62872807 C37.128508,2.97196141 37.655948,2.4373303 38.307268,2.4373303 Z M41.843548,23.4369644 L41.843548,0.35334437 C41.843548,0.188192519 41.712068,0.0545347407 41.548668,0.0545347407 L0.295108,0.0545347407 C0.132468,0.0545347407 0.000228,0.188192519 0.000228,0.35334437 L0.000228,33.7032644 C0.000228,33.8668799 0.132468,33.9997696 0.295108,33.9997696 L34.090028,33.9997696 C34.246588,33.9997696 34.397068,33.9375496 34.507268,33.8261681 L41.671028,26.6816221 C41.781988,26.5694725 41.843548,26.4181473 41.843548,26.260677 L41.843548,23.4369644 Z" id="Fill-1" fill="#00AEEF" mask="url(#mask-2)"></path>
            </g>
            <path d="M12,14.832594 L12,11.1666345 C12,11.0748312 12.0748457,11 12.1666667,11 L15.8333333,11 C15.9251543,11 16,11.0748312 16,11.1666345 L16,14.832594 C16,14.9243973 15.9251543,15 15.8333333,15 L12.1666667,15 C12.0748457,15 12,14.9243973 12,14.832594" id="Fill-4" fill="#003E6B"></path>
            <path d="M12,20.8333655 L12,17.167406 C12,17.0756027 12.0748457,17 12.1666667,17 L15.8333333,17 C15.9251543,17 16,17.0756027 16,17.167406 L16,20.8333655 C16,20.9251688 15.9251543,21 15.8333333,21 L12.1666667,21 C12.0748457,21 12,20.9251688 12,20.8333655" id="Fill-6" fill="#003E6B"></path>
            <path d="M12,27.8333333 L12,24.1666667 C12,24.0748457 12.0748457,24 12.1666667,24 L15.8333333,24 C15.9251543,24 16,24.0748457 16,24.1666667 L16,27.8333333 C16,27.9251543 15.9251543,28 15.8333333,28 L12.1666667,28 C12.0748457,28 12,27.9251543 12,27.8333333" id="Fill-8" fill="#003E6B"></path>
            <path d="M26,14.832594 L26,11.1666345 C26,11.0748312 26.0748457,11 26.1666667,11 L29.8333333,11 C29.9251543,11 30,11.0748312 30,11.1666345 L30,14.832594 C30,14.9243973 29.9251543,15 29.8333333,15 L26.1666667,15 C26.0748457,15 26,14.9243973 26,14.832594" id="Fill-10" fill="#003E6B"></path>
            <path d="M26,20.8333655 L26,17.167406 C26,17.0756027 26.0748457,17 26.1666667,17 L29.8333333,17 C29.9251543,17 30,17.0756027 30,17.167406 L30,20.8333655 C30,20.9251688 29.9251543,21 29.8333333,21 L26.1666667,21 C26.0748457,21 26,20.9251688 26,20.8333655" id="Fill-12" fill="#003E6B"></path>
            <path d="M26,27.8333333 L26,24.1666667 C26,24.0748457 26.0748457,24 26.1666667,24 L29.8333333,24 C29.9251543,24 30,24.0748457 30,24.1666667 L30,27.8333333 C30,27.9251543 29.9251543,28 29.8333333,28 L26.1666667,28 C26.0748457,28 26,27.9251543 26,27.8333333" id="Fill-14" fill="#003E6B"></path>
            <path d="M19,27.8333333 L19,24.1666667 C19,24.0748457 19.0748457,24 19.1666667,24 L22.8333333,24 C22.9251543,24 23,24.0748457 23,24.1666667 L23,27.8333333 C23,27.9251543 22.9251543,28 22.8333333,28 L19.1666667,28 C19.0748457,28 19,27.9251543 19,27.8333333" id="Fill-16" fill="#003E6B"></path>
            <path d="M19,14.832594 L19,11.1666345 C19,11.0748312 19.0748457,11 19.1666667,11 L22.8333333,11 C22.9251543,11 23,11.0748312 23,11.1666345 L23,14.832594 C23,14.9243973 22.9251543,15 22.8333333,15 L19.1666667,15 C19.0748457,15 19,14.9243973 19,14.832594" id="Fill-18" fill="#003E6B"></path>
            <path d="M19,20.8333655 L19,17.167406 C19,17.0756027 19.0748457,17 19.1666667,17 L22.8333333,17 C22.9251543,17 23,17.0756027 23,17.167406 L23,20.8333655 C23,20.9251688 22.9251543,21 22.8333333,21 L19.1666667,21 C19.0748457,21 19,20.9251688 19,20.8333655" id="Fill-20" fill="#003E6B"></path>
            <path d="M32,14.832594 L32,11.1666345 C32,11.0748312 32.0748457,11 32.1666667,11 L35.8333333,11 C35.9251543,11 36,11.0748312 36,11.1666345 L36,14.832594 C36,14.9243973 35.9251543,15 35.8333333,15 L32.1666667,15 C32.0748457,15 32,14.9243973 32,14.832594" id="Fill-22" fill="#003E6B"></path>
            <path d="M32,20.8333655 L32,17.167406 C32,17.0756027 32.0748457,17 32.1666667,17 L35.8333333,17 C35.9251543,17 36,17.0756027 36,17.167406 L36,20.8333655 C36,20.9251688 35.9251543,21 35.8333333,21 L32.1666667,21 C32.0748457,21 32,20.9251688 32,20.8333655" id="Fill-24" fill="#003E6B"></path>
            <path d="M5,14.832594 L5,11.1666345 C5,11.0748312 5.07484568,11 5.16666667,11 L8.83333333,11 C8.92515432,11 9,11.0748312 9,11.1666345 L9,14.832594 C9,14.9243973 8.92515432,15 8.83333333,15 L5.16666667,15 C5.07484568,15 5,14.9243973 5,14.832594" id="Fill-26" fill="#003E6B"></path>
            <path d="M5,20.8333655 L5,17.167406 C5,17.0756027 5.07484568,17 5.16666667,17 L8.83333333,17 C8.92515432,17 9,17.0756027 9,17.167406 L9,20.8333655 C9,20.9251688 8.92515432,21 8.83333333,21 L5.16666667,21 C5.07484568,21 5,20.9251688 5,20.8333655" id="Fill-28" fill="#003E6B"></path>
            <path d="M5,27.8333333 L5,24.1666667 C5,24.0748457 5.07484568,24 5.16666667,24 L8.83333333,24 C8.92515432,24 9,24.0748457 9,24.1666667 L9,27.8333333 C9,27.9251543 8.92515432,28 8.83333333,28 L5.16666667,28 C5.07484568,28 5,27.9251543 5,27.8333333" id="Fill-30" fill="#003E6B"></path>
        </g>
    </g>
</svg>