<?xml version="1.0" encoding="UTF-8"?>
<svg width="80px" height="80px" viewBox="0 0 80 80" version="1.1" xmlns="http://www.w3.org/2000/svg" xmlns:xlink="http://www.w3.org/1999/xlink">
    <!-- Generator: Sketch 51.3 (57544) - http://www.bohemiancoding.com/sketch -->
    <title>icon/2blue/entertain/4k video</title>
    <desc>Created with Sketch.</desc>
    <defs></defs>
    <g id="icon/2blue/entertain/4k-video" stroke="none" stroke-width="1" fill="none" fill-rule="evenodd">
        <g id="video-icon" transform="translate(19.000000, 28.000000)">
            <path d="M0,0 L0,24.3902439 L42.0731707,24.3902439 L42.0731707,0 L0,0 Z M39.7441663,21.9954296 L2.35881128,21.9954296 L2.35881128,2.39285321 L39.7441663,2.39285321 L39.7441663,21.9954296 Z" id="Shape" fill="#00AEEF" fill-rule="nonzero"></path>
            <rect id="Rectangle-path" fill="#003C71" fill-rule="nonzero" x="4.87804878" y="4.87804878" width="2.43902439" height="2.43902439"></rect>
            <rect id="Rectangle-path" fill="#003C71" fill-rule="nonzero" x="4.87804878" y="16.4634146" width="2.43902439" height="2.43902439"></rect>
            <rect id="Rectangle-path" fill="#003C71" fill-rule="nonzero" x="4.87804878" y="12.804878" width="2.43902439" height="2.43902439"></rect>
            <rect id="Rectangle-path" fill="#003C71" fill-rule="nonzero" x="4.87804878" y="8.53658537" width="2.43902439" height="2.43902439"></rect>
            <rect id="Rectangle-path" fill="#003C71" fill-rule="nonzero" x="34.1463415" y="4.87804878" width="2.43902439" height="2.43902439"></rect>
            <rect id="Rectangle-path" fill="#003C71" fill-rule="nonzero" x="34.1463415" y="16.4634146" width="2.43902439" height="2.43902439"></rect>
            <rect id="Rectangle-path" fill="#003C71" fill-rule="nonzero" x="34.1463415" y="12.804878" width="2.43902439" height="2.43902439"></rect>
            <rect id="Rectangle-path" fill="#003C71" fill-rule="nonzero" x="34.1463415" y="8.53658537" width="2.43902439" height="2.43902439"></rect>
            <path d="M16.9682927,17.4168514 L16.9682927,15.3973392 L12.3439024,15.3973392 L12.3439024,13.8607539 L16.9682927,7.50953437 L18.8707317,7.50953437 L18.8707317,13.7875831 L20.1439024,13.7875831 L20.1439024,15.3973392 L18.8707317,15.3973392 L18.8707317,17.4168514 L16.9682927,17.4168514 Z M16.9682927,13.7875831 L16.9682927,10.275388 L14.4512195,13.7875831 L16.9682927,13.7875831 Z M26.2317073,12.1339246 L30.2560976,17.4168514 L27.5926829,17.4168514 L24.8707317,13.5827051 C24.7926825,13.4753875 24.7219515,13.3851445 24.6585366,13.3119734 C24.5951216,13.2388023 24.5292686,13.1802663 24.4609756,13.1363636 C24.3926826,13.092461 24.3170736,13.063193 24.2341463,13.0485588 C24.1512191,13.0339245 24.0512201,13.0266075 23.9341463,13.0266075 L23.8463415,13.0266075 L23.8463415,17.4168514 L21.7097561,17.4168514 L21.7097561,7.31929047 L23.8463415,7.31929047 L23.8463415,11.372949 L23.9341463,11.372949 C24.0512201,11.372949 24.1512191,11.368071 24.2341463,11.3583149 C24.3170736,11.3485587 24.3999996,11.3192907 24.4829268,11.27051 C24.5658541,11.2217292 24.6512191,11.1509982 24.7390244,11.0583149 C24.8268297,10.9656315 24.9292677,10.8363645 25.0463415,10.67051 L27.4463415,7.31929047 L29.9195122,7.31929047 L26.2317073,12.1339246 Z" id="4K" fill="#003C71"></path>
        </g>
    </g>
</svg>