<?xml version="1.0" encoding="UTF-8"?>
<svg width="80px" height="80px" viewBox="0 0 80 80" version="1.1" xmlns="http://www.w3.org/2000/svg" xmlns:xlink="http://www.w3.org/1999/xlink">
    <!-- Generator: Sketch 51.3 (57544) - http://www.bohemiancoding.com/sketch -->
    <title>icon/2blue/education/kid</title>
    <desc>Created with Sketch.</desc>
    <defs></defs>
    <g id="icon/2blue/education/kid" stroke="none" stroke-width="1" fill="none" fill-rule="evenodd">
        <g id="kids" transform="translate(23.000000, 22.000000)" fill-rule="nonzero">
            <path d="M23.6791881,24.0222708 C23.6089416,23.9819042 23.518401,23.9977008 23.4674583,24.0592113 C19.8991461,28.3220773 17.2941048,28.7786542 17.0207812,28.8155934 C17.0050512,28.8185497 16.9888728,28.8185497 16.9731428,28.8155934 C16.7004928,28.7786542 14.1015152,28.3220773 10.5331059,24.0606892 C10.4824495,23.9980182 10.3908454,23.981805 10.3202219,24.0230104 C8.33439359,25.2013938 0.122085959,29.0475756 5.25200086e-05,33.7315573 C-0.00161398079,33.7943688 0.0365046607,33.8518995 0.0964861965,33.8771002 C0.98103405,34.2524065 7.78774645,37 16.9999939,37 C26.2158982,37 33.0244397,34.2501926 33.9047529,33.8763618 C33.9640802,33.8518043 34.0017975,33.7950079 33.999934,33.733034 C33.8791506,29.0475768 25.6631886,25.1999159 23.6791881,24.0222708 Z" id="Shape" fill="#00AEEF"></path>
            <path d="M5.32758809,21.9939575 C6.01949407,22.0328728 10.0221985,22.2060839 12.0820825,22.3121471 C12.1138599,22.3131642 12.144493,22.3243885 12.1695476,22.3441952 C15.0242281,24.5530688 18.98755,24.5518177 21.8408681,22.3411423 C21.8666441,22.3212981 21.8977737,22.309855 21.9301258,22.3083315 L28.6718946,21.9939575 C28.7518284,21.9912229 28.8176196,21.9294412 28.8262804,21.8489803 C28.953615,20.6975475 29.7142306,12.5688432 26.6066391,6.44771567 C25.7839073,4.8270115 23.5406108,0.0457824766 16.999787,0 C10.4588694,0.0457824766 8.21623139,4.8270115 7.39350327,6.44771567 C4.28534722,12.5688482 5.04652237,20.6983101 5.17386319,21.8497429 C5.18254924,21.9298046 5.24804306,21.9912466 5.32758809,21.9939575 Z M16.9834824,1.99077951 C21.3752597,1.99077951 24.9822943,5.64423139 25.4026594,10.3193972 C25.408577,10.3858737 25.3739502,10.4493107 25.3151942,10.4796353 C25.2543071,10.512446 25.1915324,10.5444941 25.1258409,10.5773048 C25.0840672,10.5980837 25.0355289,10.5998891 24.9923606,10.5822696 C24.9491924,10.56465 24.9154743,10.529271 24.8996361,10.4849773 C24.0400565,8.06841859 21.8734786,4.02809909 16.9834837,4.02809909 C12.0886807,4.02809909 9.92201014,8.07680598 9.0649742,10.4926033 C9.04915277,10.5370721 9.01532277,10.5725898 8.97199132,10.5902247 C8.92865987,10.6078596 8.87994966,10.605934 8.83810967,10.5849321 C8.7736412,10.5536466 8.71143472,10.5223623 8.6523377,10.4918407 C8.59300274,10.460496 8.55823508,10.3960046 8.56430676,10.3285497 C8.97986371,5.64957212 12.5886884,1.99077951 16.9834824,1.99077951 Z M8.11434563,12.5306955 C8.19566601,12.4443236 8.2976854,12.3807124 8.41048674,12.3460454 C8.50275998,12.3193392 8.71388449,12.3231548 8.79955954,12.4498195 C9.14876406,12.9633481 9.41474452,13.7759886 9.53180572,14.0003229 C9.60899864,14.1483542 9.77789405,14.1361451 9.78751274,13.9690386 C9.84460482,13.0596986 9.97881106,12.1570054 10.1886503,11.2709217 C10.1972798,11.2349992 10.2196808,11.2040286 10.2509091,11.1848454 C10.2821374,11.1656623 10.3196256,11.1598437 10.3550996,11.168674 C11.0185913,11.3332545 11.6959865,11.4339162 12.3782236,11.4693124 C12.455091,11.4752373 12.5257362,11.4264143 12.5482543,11.3518039 L13.4566575,8.27292516 C13.4783645,8.20155748 13.5443856,8.15355627 13.6181489,8.15551133 C13.6919123,8.15746639 13.7553599,8.20889909 13.7733455,8.2813188 L14.5279287,11.4197144 C14.5447372,11.4919347 14.6072479,11.5438237 14.6805232,11.5463804 C18.1656898,11.6844904 22.2323907,11.5578257 23.6438184,11.168674 C23.6788942,11.1588072 23.7164211,11.1636948 23.747885,11.1822279 C23.7793489,11.2007611 23.8020823,11.2313686 23.8109275,11.2671061 C24.0213923,12.1543793 24.1557922,13.0583792 24.2126308,13.9690424 C24.2228104,14.1361488 24.4026439,14.1315645 24.4798368,13.9835443 C24.5955786,13.7599727 24.7518484,13.100703 25.1348888,12.4841642 C25.1794713,12.4132008 25.4744808,12.3811501 25.5546893,12.4040445 C25.6709192,12.4281655 25.7770243,12.4878295 25.8586529,12.5749665 C26.0342441,12.7977743 26.0323589,13.2075288 25.9250065,13.8072816 C25.5570452,15.8644451 24.5998197,16.6961633 24.2710669,16.6961633 L23.7408985,16.6824276 C23.6814878,16.680742 23.6263811,16.7136678 23.5991433,16.7671254 L23.4218547,17.1165992 C22.9192697,18.1042816 22.3077595,19.0311821 21.599016,19.8795787 C21.5374692,19.9535888 21.4730007,20.0253198 21.4047618,20.0932328 C20.1815559,21.3194433 18.64647,22.0161018 17.0028051,22.0161018 C15.2131426,22.0161018 13.5519476,21.1912521 12.2829348,19.7536778 C11.6307693,18.9332531 11.0598129,18.0499868 10.5782889,17.1166004 L10.4010003,16.7671267 C10.3736535,16.7137733 10.3186182,16.6808901 10.259245,16.6824289 L9.72907541,16.6961645 C9.3996642,16.6961645 8.44187288,15.771355 8.07390907,13.7141914 C7.96589705,13.1136585 7.94902666,12.7603717 8.11434563,12.5306955 Z" id="Shape" fill="#003C71"></path>
        </g>
    </g>
</svg>