<?xml version="1.0" encoding="utf-8"?>
<!-- Generator: Adobe Illustrator 23.0.1, SVG Export Plug-In . SVG Version: 6.00 Build 0)  -->
<svg version="1.1" id="Layer_1" xmlns="http://www.w3.org/2000/svg" xmlns:xlink="http://www.w3.org/1999/xlink" x="0px" y="0px"
	 viewBox="0 0 80 80" style="enable-background:new 0 0 80 80;" xml:space="preserve">
<style type="text/css">
	.st0{fill-rule:evenodd;clip-rule:evenodd;fill:#003C71;}
	.st1{fill-rule:evenodd;clip-rule:evenodd;fill:#00AEEF;}
</style>
<g id="Page-3">
	<g id="D-chart-E-Copy" transform="translate(-80.000000, -231.000000)">
		<g id="Group-3_1_" transform="translate(80.000000, 231.000000)">
			<polygon id="Fill-1_1_" class="st0" points="33.3,46.7 46.7,46.7 46.7,33.3 33.3,33.3 			"/>
			<path id="Fill-2" class="st1" d="M44.9,26.5v3.3h-4v-3.3h-1.8v3.3h-4v-3.3h-1.8v3.3h-3.5v3.5h-3.4v1.8h3.4v4h-3.4V41h3.4v4h-3.4
				v1.8h3.4v3.4h3.5v3.3h1.8v-3.3h4v3.3h1.8v-3.3h4v3.3h1.8v-3.3h3.5v-3.4h3.4v-1.8h-3.4v-4h3.4v-1.8h-3.4v-4h3.4v-1.8h-3.4v-3.5
				h-3.5v-3.3H44.9z M31.6,48.4h16.8V31.6H31.6V48.4z"/>
		</g>
	</g>
</g>
</svg>
