<?xml version="1.0" encoding="utf-8"?>
<!-- Generator: Adobe Illustrator 23.0.3, SVG Export Plug-In . SVG Version: 6.00 Build 0)  -->
<svg version="1.1" xmlns="http://www.w3.org/2000/svg" xmlns:xlink="http://www.w3.org/1999/xlink" x="0px" y="0px"
	 viewBox="0 0 80 80" style="enable-background:new 0 0 80 80;" xml:space="preserve">
<style type="text/css">
	.st0{fill:#00AEEF;}
</style>
<g id="Layer_2">
	<g>
		<path class="st0" d="M45.5,50.7c-5.9,0-10.7-4.8-10.7-10.7c0-5.9,4.8-10.7,10.7-10.7c5.9,0,10.7,4.8,10.7,10.7c0,0,0,0,0,0
			C56.3,45.9,51.5,50.7,45.5,50.7 M45.5,30.7c-5.1,0-9.3,4.1-9.3,9.3c0,5.1,4.1,9.3,9.3,9.3c5.1,0,9.3-4.1,9.3-9.3c0,0,0,0,0,0
			C54.8,34.9,50.6,30.7,45.5,30.7"/>
		<path class="st0" d="M39.5,40C39.5,40,39.6,40,39.5,40c0.1-3.4,2.8-6,6.1-5.9c0.8,0,1.7,0.2,2.4,0.6c0,0,0.1,0,0.1,0l1.2-1.3
			c0,0,0-0.1,0-0.1c0,0,0,0,0,0c-3.7-2.1-8.5-0.9-10.6,2.9c-0.7,1.2-1,2.5-1,3.8c0,0,0,0.1,0.1,0.1c0,0,0,0,0,0L39.5,40z"/>
		<path class="st0" d="M51.6,35.2l-0.9-0.9c0,0-0.1,0-0.1,0c0,0,0,0,0,0l-4,3.8c0,0-0.1,0-0.1,0c-1.1-0.5-2.4-0.1-3,1
			c-0.1,0.2-0.2,0.5-0.2,0.8c-0.1,1.2,0.8,2.3,2,2.4c1.2,0.1,2.3-0.8,2.4-2c0-0.4,0-0.7-0.2-1c0,0,0-0.1,0-0.1l4-3.8
			C51.6,35.3,51.6,35.2,51.6,35.2C51.6,35.2,51.6,35.2,51.6,35.2 M45.5,40.7c-0.4,0-0.7-0.3-0.7-0.7c0-0.4,0.3-0.7,0.7-0.7
			c0.4,0,0.7,0.3,0.7,0.7c0,0,0,0,0,0C46.3,40.4,45.9,40.7,45.5,40.7C45.5,40.7,45.5,40.7,45.5,40.7"/>
		<path class="st0" d="M34,35.6H23.8c0,0-0.1,0-0.1,0.1c0,0,0,0,0,0l0.5,1.7c0,0,0,0,0.1,0h9.2c0,0,0.1,0,0.1-0.1
			c0.1-0.6,0.3-1.1,0.5-1.7C34.1,35.7,34.1,35.6,34,35.6C34,35.6,34,35.6,34,35.6"/>
		<path class="st0" d="M33.5,42.3C33.5,42.3,33.5,42.2,33.5,42.3l-8.1-0.1c0,0-0.1,0-0.1,0.1c0,0,0,0,0,0l0.4,1.7c0,0,0,0,0.1,0h8
			c0.1,0,0.1,0,0.1-0.1c0,0,0,0,0,0C33.8,43.4,33.6,42.9,33.5,42.3"/>
		<path class="st0" d="M33.2,40.7C33.3,40.7,33.3,40.7,33.2,40.7C33.3,40.7,33.3,40.7,33.2,40.7c0.1-0.3,0.1-0.5,0.1-0.7
			c0-0.3,0-0.7,0-1c0-0.1,0-0.1-0.1-0.1c0,0,0,0,0,0h-8.6c0,0-0.1,0-0.1,0.1c0,0,0,0,0,0.1l0.4,1.7c0,0,0,0,0.1,0L33.2,40.7z"/>
	</g>
</g>
<g id="Layer_3">
</g>
</svg>
