<?xml version="1.0" encoding="UTF-8"?>
<svg width="80px" height="80px" viewBox="0 0 80 80" version="1.1" xmlns="http://www.w3.org/2000/svg" xmlns:xlink="http://www.w3.org/1999/xlink">
    <!-- Generator: Sketch 51.3 (57544) - http://www.bohemiancoding.com/sketch -->
    <title>icon/2blue/entertain/video</title>
    <desc>Created with Sketch.</desc>
    <defs></defs>
    <g id="icon/2blue/entertain/video" stroke="none" stroke-width="1" fill="none" fill-rule="evenodd">
        <g id="video-icon" transform="translate(18.000000, 28.000000)" fill-rule="nonzero">
            <path d="M0,0 L0,25 L43.125,25 L43.125,0 L0,0 Z M40.7377704,22.5453153 L2.41778156,22.5453153 L2.41778156,2.45267454 L40.7377704,2.45267454 L40.7377704,22.5453153 Z" id="Shape" fill="#00AEEF"></path>
            <rect id="Rectangle-path" fill="#003C71" x="5" y="5" width="2.5" height="2.5"></rect>
            <rect id="Rectangle-path" fill="#003C71" x="5" y="16.875" width="2.5" height="2.5"></rect>
            <rect id="Rectangle-path" fill="#003C71" x="5" y="13.125" width="2.5" height="2.5"></rect>
            <rect id="Rectangle-path" fill="#003C71" x="5" y="8.75" width="2.5" height="2.5"></rect>
            <rect id="Rectangle-path" fill="#003C71" x="35" y="5" width="2.5" height="2.5"></rect>
            <rect id="Rectangle-path" fill="#003C71" x="35" y="16.875" width="2.5" height="2.5"></rect>
            <rect id="Rectangle-path" fill="#003C71" x="35" y="13.125" width="2.5" height="2.5"></rect>
            <rect id="Rectangle-path" fill="#003C71" x="35" y="8.75" width="2.5" height="2.5"></rect>
            <polygon id="Shape" fill="#003C71" points="18.125 8.75 18.125 16.875 24.375 12.8157832"></polygon>
        </g>
    </g>
</svg>