<?xml version="1.0" encoding="UTF-8"?>
<svg width="80px" height="80px" viewBox="0 0 80 80" version="1.1" xmlns="http://www.w3.org/2000/svg" xmlns:xlink="http://www.w3.org/1999/xlink">
    <!-- Generator: Sketch 51.3 (57544) - http://www.bohemiancoding.com/sketch -->
    <title>icon/1blue/entertain/music</title>
    <desc>Created with Sketch.</desc>
    <defs>
        <polygon id="path-1" points="0 0 22 0 22 29 0 29"></polygon>
    </defs>
    <g id="icon/1blue/entertain/music" stroke="none" stroke-width="1" fill="none" fill-rule="evenodd">
        <g id="Group-3" transform="translate(27.000000, 26.000000)">
            <mask id="mask-2" fill="white">
                <use xlink:href="#path-1"></use>
            </mask>
            <g id="Clip-2"></g>
            <path d="M21.9767091,21.1543573 L21.9767091,0.888377894 L21.9749623,0.888377894 L21.97438,0 L6.43818649,3.88693585 L6.37937697,3.88693585 L6.37937697,20.0421896 C5.87279994,19.8641749 5.33419792,19.7511497 4.76473546,19.7511497 C2.13286399,19.7511497 0,21.821771 0,24.3755749 C0,26.9293788 2.13286399,29 4.76473546,29 C7.39602467,29 9.52947093,26.9293788 9.52947093,24.3755749 C9.52947093,24.2992829 9.51025594,24.228077 9.50618003,24.1529153 L9.50618003,6.22316626 L18.849906,3.76204303 L18.849906,17.0436316 C18.343329,16.865617 17.804727,16.7520267 17.2346823,16.7520267 C14.6033931,16.7520267 12.4699468,18.8226479 12.4699468,21.3770169 C12.4699468,23.9308208 14.6033931,26.001442 17.2346823,26.001442 C19.8665537,26.001442 22,23.9308208 22,21.3770169 C22,21.3007249 21.9802027,21.2295191 21.9767091,21.1543573" id="Fill-1" fill="#00AEEF" mask="url(#mask-2)"></path>
        </g>
    </g>
</svg>