<?xml version="1.0" encoding="utf-8"?>
<!-- Generator: Adobe Illustrator 23.0.1, SVG Export Plug-In . SVG Version: 6.00 Build 0)  -->
<svg version="1.1" id="Layer_1" xmlns="http://www.w3.org/2000/svg" xmlns:xlink="http://www.w3.org/1999/xlink" x="0px" y="0px"
	 viewBox="0 0 80 80" style="enable-background:new 0 0 80 80;" xml:space="preserve">
<style type="text/css">
	.st0{fill-rule:evenodd;clip-rule:evenodd;fill:#00AEEF;}
</style>
<g id="Symbols_1_">
	<g transform="translate(-21.000000, -28.000000)">
		<g id="Group" transform="translate(21.000000, 28.000000)">
			<g id="Group-9">
				<path id="Fill-1_1_" class="st0" d="M24.3,46.1h31.3c0.1,0,0.1-0.1,0.1-0.1V29.9c0-0.1-0.1-0.1-0.1-0.1H24.3
					c-0.1,0-0.1,0.1-0.1,0.1v16.1C24.2,46,24.3,46.1,24.3,46.1 M57.7,48.2H22.4c-0.1,0-0.3-0.1-0.3-0.3v-20c0-0.1,0.1-0.3,0.3-0.3
					h35.3c0.1,0,0.3,0.1,0.3,0.3v20C57.9,48,57.8,48.2,57.7,48.2"/>
				<path id="Fill-3" class="st0" d="M59,52.4H21c-0.3,0-0.5-0.2-0.5-0.5v-1.4c0-0.1,0.1-0.1,0.1-0.1h38.7c0.1,0,0.1,0.1,0.1,0.1
					v1.4C59.5,52.1,59.3,52.4,59,52.4"/>
			</g>
			<path class="st0" d="M33.9,43.5v-2.4h-5.4v-1.8l5.4-7.4h2.2v7.4h1.5v1.9h-1.5v2.4H33.9z M33.9,39.2v-4.1l-3,4.1H33.9z M44.8,37.3
				l4.7,6.2h-3.1L43.2,39c-0.1-0.1-0.2-0.2-0.2-0.3c-0.1-0.1-0.2-0.2-0.2-0.2s-0.2-0.1-0.3-0.1s-0.2,0-0.4,0H42v5.1h-2.5V31.6H42
				v4.8h0.1c0.1,0,0.3,0,0.4,0c0.1,0,0.2,0,0.3-0.1c0.1-0.1,0.2-0.1,0.3-0.2s0.2-0.3,0.4-0.5l2.8-3.9h2.9L44.8,37.3z"/>
		</g>
	</g>
</g>
</svg>
