<?xml version="1.0" encoding="utf-8"?>
<!-- Generator: Adobe Illustrator 23.0.2, SVG Export Plug-In . SVG Version: 6.00 Build 0)  -->
<svg version="1.1" id="Layer_1" xmlns="http://www.w3.org/2000/svg" xmlns:xlink="http://www.w3.org/1999/xlink" x="0px" y="0px"
	 viewBox="0 0 80 80" style="enable-background:new 0 0 80 80;" xml:space="preserve">
<style type="text/css">
	.st0{fill-rule:evenodd;clip-rule:evenodd;fill:#BBBBBB;}
</style>
<g id="Symbols_1_">
	<g transform="translate(-5.000000, -8.000000)">
		<g id="Group-9" transform="translate(5.000000, 8.000000)">
			<path id="Fill-1_1_" class="st0" d="M59.1,27.2h-8.4c-0.1,0-0.1,0.1-0.1,0.1v2.5c0,0.1,0.1,0.1,0.1,0.1h5.7
				c0.1,0,0.1,0.1,0.1,0.1v5.7c0,0.1,0.1,0.1,0.1,0.1h2.4c0.1,0,0.1-0.1,0.1-0.1v-8.5C59.2,27.3,59.1,27.2,59.1,27.2"/>
			<path id="Fill-3_1_" class="st0" d="M63.9,22.3H50.7c-0.1,0-0.1,0.1-0.1,0.1v2.5c0,0.1,0.1,0.1,0.1,0.1h10.5
				c0.1,0,0.1,0.1,0.1,0.1v10.6c0,0.1,0.1,0.1,0.1,0.1h2.4c0.1,0,0.1-0.1,0.1-0.1V22.4C64.1,22.3,64,22.3,63.9,22.3"/>
			<path id="Fill-5_1_" class="st0" d="M19.9,51.2H52c0.1,0,0.1-0.1,0.1-0.1V34.4c0-0.1-0.1-0.1-0.1-0.1H19.9
				c-0.1,0-0.1,0.1-0.1,0.1V51C19.7,51.1,19.8,51.2,19.9,51.2 M54,53.4H17.9c-0.1,0-0.3-0.1-0.3-0.3V32.4c0-0.2,0.1-0.3,0.3-0.3H54
				c0.1,0,0.3,0.1,0.3,0.3v20.7C54.3,53.2,54.2,53.4,54,53.4"/>
			<path id="Fill-7_1_" class="st0" d="M55.4,57.7H16.5c-0.3,0-0.5-0.2-0.5-0.5v-1.5c0-0.1,0.1-0.1,0.1-0.1h39.7
				c0.1,0,0.1,0.1,0.1,0.1v1.5C55.9,57.5,55.7,57.7,55.4,57.7"/>
		</g>
	</g>
</g>
</svg>
