<?xml version="1.0" encoding="utf-8"?>
<!-- Generator: Adobe Illustrator 24.1.0, SVG Export Plug-In . SVG Version: 6.00 Build 0)  -->
<svg version="1.1" id="Layer_1" xmlns="http://www.w3.org/2000/svg" xmlns:xlink="http://www.w3.org/1999/xlink" x="0px" y="0px"
	 viewBox="0 0 569.6 375.6" style="enable-background:new 0 0 569.6 375.6;" xml:space="preserve">
<style type="text/css">
	.st0{fill:#FFFFFF;}
</style>
<g>
	<path class="st0" d="M270.6,334.8c-112.6,10.4-229.9-6-246.3-93.9c-8-43.4,11.7-89.3,37.9-117.9v-15.3
		c-47.2,41.4-72.8,93.8-58,155.7C23,342.8,123.6,387.7,277.3,372.8c60.8-5.9,140.4-25.5,195.7-55.9v-43.2
		C422.8,303.7,339.8,328.4,270.6,334.8z M567.1,106.7c-26.7-130.3-279.8-138.6-443-39.3v11c163-83.8,394.1-83.3,415.2,36.8
		c7.1,39.7-15.3,81.1-55.3,104.9v31.2C532.1,233.6,581.4,176.6,567.1,106.7z"/>
	<path class="st0" d="M463.9,87.7h-29.5v131.4c0,15.4,7.4,28.8,29.5,30.9V87.7z"/>
	<path class="st0" d="M112.6,135.7H83v85.9c0,15.5,7.5,28.8,29.6,30.9V135.7z"/>
	<rect x="83" y="91.7" class="st0" width="29.5" height="28"/>
	<path class="st0" d="M289.3,251.1c-23.9,0-34-16.6-34-33v-114h29.3v31.5h22v23.6h-22v57.1c0,6.7,3.2,10.4,10.1,10.4h11.9v24.4
		H289.3"/>
	<path class="st0" d="M343.1,202.6c0,15,9.4,26,25.9,26c13,0,19.4-3.6,26.9-11l18.1,17.2c-11.6,11.4-23.7,18.4-45.2,18.4
		c-28,0-54.8-15.3-54.8-59.8c0-38.1,23.4-59.6,54.2-59.6c31.2,0,49.2,25.2,49.2,58.3v10.6L343.1,202.6 M366.9,157.9
		c-10,0-17.7,5.2-21,12.1c-1.9,4.2-2.6,7.4-2.8,12.6h45.1C387.6,170.1,381.9,157.9,366.9,157.9z"/>
	<path class="st0" d="M192,159.3c8.6,0,12.1,4.2,12.1,11.1v80.9h29.3v-81c0-16.4-8.7-34.6-34.4-34.6h-60.4v115.6h29.3v-92L192,159.3
		L192,159.3z"/>
	<g>
		<path class="st0" d="M495.7,111.2c-6.5,0-11.7-5.2-11.7-11.7s5.2-11.7,11.7-11.7s11.8,5.3,11.8,11.7
			C507.5,106,502.2,111.2,495.7,111.2z M495.7,89.7c-5.4,0-9.7,4.4-9.7,9.8s4.3,9.7,9.7,9.7c5.4,0,9.8-4.4,9.8-9.7
			C505.5,94.1,501.1,89.7,495.7,89.7z M500.9,106.5h-2.2c-0.2,0-0.4-0.1-0.4-0.3l-3-5c-0.1-0.1-0.3-0.2-0.4-0.2c0,0-0.5,0-0.9,0
			c-0.2,0-0.4,0-0.5,0v5c0,0.2-0.2,0.5-0.5,0.5h-2c-0.3,0-0.5-0.3-0.5-0.5V93.3c0-0.7,0.2-1,0.9-1.1C492.2,92,494,92,495,92
			c3.7,0,5.8,1.1,5.8,4.5v0.2c0,2.1-1,3.2-2.6,3.8l3.1,5.3c0,0.1,0.1,0.3,0.1,0.4S501.3,106.5,500.9,106.5z M498.1,96.4
			c0-1.4-0.9-1.9-2.8-1.9c-0.2,0-0.9,0-1.4,0c-0.2,0-0.4,0-0.5,0v4c0.3,0,1.6,0.1,1.9,0.1c1.9,0,2.8-0.6,2.8-2V96.4z"/>
	</g>
</g>
</svg>
