<?xml version="1.0" encoding="utf-8"?>
<!-- Generator: Adobe Illustrator 23.0.2, SVG Export Plug-In . SVG Version: 6.00 Build 0)  -->
<svg version="1.1" id="Layer_1" xmlns="http://www.w3.org/2000/svg" xmlns:xlink="http://www.w3.org/1999/xlink" x="0px" y="0px"
	 viewBox="0 0 80 80" style="enable-background:new 0 0 80 80;" xml:space="preserve">
<style type="text/css">
	.st0{fill-rule:evenodd;clip-rule:evenodd;fill:#00AEEF;}
	.st1{fill-rule:evenodd;clip-rule:evenodd;fill:#003E6B;}
</style>
<g id="Page-3">
	<g id="Group-11">
		<path id="Fill-5" class="st0" d="M20.3,43.1h39.4c0.1,0,0.2-0.1,0.2-0.2V19.9c0-0.1-0.1-0.2-0.2-0.2H20.3c-0.1,0-0.2,0.1-0.2,0.2
			V43C20.1,43,20.2,43.1,20.3,43.1 M62.2,45.6H17.8c-0.2,0-0.3-0.1-0.3-0.3V17.6c0-0.2,0.1-0.3,0.3-0.3h44.4c0.2,0,0.3,0.1,0.3,0.3
			v27.7C62.5,45.4,62.4,45.6,62.2,45.6"/>
		<path id="Fill-7" class="st0" d="M46.8,52.3H33c-0.1,0-0.2-0.1-0.2-0.2v-4.5c0-0.1,0.1-0.2,0.2-0.2h13.8c0.1,0,0.2,0.1,0.2,0.2
			v4.5C47,52.2,46.9,52.3,46.8,52.3"/>
		<path id="Fill-9" class="st0" d="M63.9,58.7H16.1c-0.4,0-0.7-0.4-0.7-0.8v-2.2c0-0.1,0.1-0.2,0.2-0.2h48.8c0.1,0,0.2,0.1,0.2,0.2
			v2.2C64.6,58.4,64.3,58.7,63.9,58.7"/>
		<path class="st1" d="M39.9,35.1c-1.6,0-3.1,0.7-4,2v0.4l2,1.5h0.2c0.9-1.1,2.5-1.1,3.6-0.2l0.2,0.2c0,0,0.2,0.2,0.2,0l1.8-1.5
			c0.2,0,0.2-0.2,0-0.4C42.8,35.9,41.5,35.1,39.9,35.1"/>
		<path class="st1" d="M39.9,29.4c-3.2,0-6.2,1.5-8.1,3.9v0.4l1.7,1.3h0.2c2.8-3.4,7.7-3.9,11.1-1.3c0.4,0.4,0.9,0.6,1.3,1.3
			c0,0,0.2,0.2,0.2,0l1.7-1.3c0.2,0,0.2-0.2,0-0.4C46.1,30.7,43.1,29.4,39.9,29.4"/>
		<path id="Fill-11" class="st1" d="M29.3,31.7c4.6-5.8,13-6.7,18.9-2.2c0.9,0.6,1.5,1.3,2.2,2.2c0,0,0.2,0.2,0.2,0l1.7-1.5v-0.4
			c-3-3.9-7.6-6-12.6-6c-5,0-9.8,2.4-12.8,6.3v0.4l2.2,1.3H29.3z"/>
	</g>
</g>
</svg>
