<?xml version="1.0" encoding="UTF-8"?>
<svg width="80px" height="80px" viewBox="0 0 80 80" version="1.1" xmlns="http://www.w3.org/2000/svg" xmlns:xlink="http://www.w3.org/1999/xlink">
    <!-- Generator: Sketch 51.3 (57544) - http://www.bohemiancoding.com/sketch -->
    <title>icon/1blue/productivity/email</title>
    <desc>Created with Sketch.</desc>
    <defs></defs>
    <g id="icon/1blue/productivity/email" stroke="none" stroke-width="1" fill="none" fill-rule="evenodd">
        <path d="M61.2303099,28 L18.3180771,28 C18.1409946,28.0040214 17.9996396,28.1489961 18.0000007,28.3262217 L18.0000007,52.6737793 C18.0003511,52.850715 18.1413018,52.9952747 18.3180771,53 L61.2303099,53 C61.4074111,52.9960236 61.5487915,52.8510236 61.5483862,52.6737803 L61.5483862,28.3262228 C61.5480358,28.1492867 61.4070855,28.0047264 61.2303099,28 Z M57.5216547,30.566191 L40.164696,40.4990046 C40.1372902,40.5270991 40.0998937,40.543212 40.060662,40.5438292 L40.0545621,40.5438292 C40.0145577,40.5441396 39.9761977,40.5279221 39.9485363,40.4990046 L22.5854839,30.566191 L57.5216547,30.566191 Z M58.987595,50.2667159 C58.9872528,50.3566653 58.9143505,50.4294409 58.8244503,50.4295773 L58.826441,50.4318181 L20.7178347,50.4318181 C20.6278859,50.4315649 20.5550117,50.358706 20.55469,50.2687078 L20.55469,32.7917171 L39.7712073,44.0077475 C39.8329874,44.060879 39.9118741,44.0898864 39.9933383,44.0894272 L40.0667598,44.0894272 C40.1513431,44.0857053 40.2323433,44.0541976 40.2972282,43.9997789 L58.987595,33.0795898 L58.987595,50.2667159 Z" id="Shape" fill="#00AEEF" fill-rule="nonzero"></path>
    </g>
</svg>