<?xml version="1.0" encoding="UTF-8"?>
<svg width="80px" height="80px" viewBox="0 0 80 80" version="1.1" xmlns="http://www.w3.org/2000/svg" xmlns:xlink="http://www.w3.org/1999/xlink">
    <!-- Generator: Sketch 51.3 (57544) - http://www.bohemiancoding.com/sketch -->
    <title>icon/1blue/gaming/online</title>
    <desc>Created with Sketch.</desc>
    <defs>
        <polygon id="path-1" points="0.197145455 0.534782609 13.9566 0.534782609 13.9566 14.6377826 0.197145455 14.6377826"></polygon>
        <polygon id="path-3" points="0 37 49 37 49 1 0 1"></polygon>
    </defs>
    <g id="icon/1blue/gaming/online" stroke="none" stroke-width="1" fill="none" fill-rule="evenodd">
        <g id="Group-17" transform="translate(19.000000, 21.000000)">
            <path d="M43.8596086,6 L35.1403914,6 C35.0630461,6 35,6.0630507 35,6.14040156 L35,8.68062978 C35,8.75798064 35.0630461,8.82103134 35.1403914,8.82103134 L41.038781,8.82103134 C41.1161262,8.82103134 41.1791724,8.88408205 41.1791724,8.9614329 L41.1791724,14.8595984 C41.1791724,14.9369493 41.2422185,15 41.3195638,15 L43.8596086,15 C43.9369539,15 44,14.9369493 44,14.8595984 L44,6.14040156 C44,6.0630507 43.9369539,6 43.8596086,6" id="Fill-1" fill="#00AEEF"></path>
            <g id="Group-5" transform="translate(35.000000, 0.000000)">
                <mask id="mask-2" fill="white">
                    <use xlink:href="#path-1"></use>
                </mask>
                <g id="Clip-4"></g>
                <path d="M13.8191455,0.534521739 L0.3346,0.534521739 C0.258872727,0.534521739 0.197145455,0.597782609 0.197145455,0.675391304 L0.197145455,3.22408696 C0.197145455,3.30169565 0.258872727,3.36495652 0.3346,3.36495652 L11.0573273,3.36495652 C11.1330545,3.36495652 11.1947818,3.42821739 11.1947818,3.50582609 L11.1947818,14.496913 C11.1947818,14.5751739 11.2565091,14.6377826 11.3322364,14.6377826 L13.8191455,14.6377826 C13.8948727,14.6377826 13.9566,14.5751739 13.9566,14.496913 L13.9566,0.675391304 C13.9566,0.597782609 13.8948727,0.534521739 13.8191455,0.534521739" id="Fill-3" fill="#00AEEF" mask="url(#mask-2)"></path>
            </g>
            <path d="M4.31277556,29.8459621 L36.6872244,29.8459621 C36.7628053,29.8459621 36.8232701,29.7855044 36.8232701,29.7113347 L36.8232701,13.2886653 C36.8232701,13.2144956 36.7628053,13.1540379 36.6872244,13.1540379 L4.31277556,13.1540379 C4.2378245,13.1540379 4.17672993,13.2144956 4.17672993,13.2886653 L4.17672993,29.7113347 C4.17672993,29.7855044 4.2378245,29.8459621 4.31277556,29.8459621 M38.7285386,32 L2.27209124,32 C2.12155928,32 2,31.879708 2,31.7307453 L2,11.2692547 C2,11.1209153 2.12155928,11 2.27209124,11 L38.7285386,11 C38.8784407,11 39,11.1209153 39,11.2692547 L39,31.7307453 C39,31.879708 38.8784407,32 38.7285386,32" id="Fill-6" fill="#00AEEF"></path>
            <path d="M40.4459979,36 L0.554002064,36 C0.248146758,36 0,35.7760417 0,35.5 L0,34.125 C0,34.0561343 0.062196991,34 0.138500516,34 L40.8614995,34 C40.937803,34 41,34.0561343 41,34.125 L41,35.5 C41,35.7760417 40.7518532,36 40.4459979,36" id="Fill-8" fill="#00AEEF"></path>
            <path d="M20.5,17.2968639 C18.1825041,17.2968639 16.2968639,19.1825041 16.2968639,21.5 C16.2968639,23.8174959 18.1825041,25.7031361 20.5,25.7031361 C22.8174959,25.7031361 24.7031361,23.8174959 24.7031361,21.5 C24.7031361,19.1825041 22.8174959,17.2968639 20.5,17.2968639 M20.5,27 C17.4672837,27 15,24.5327163 15,21.5 C15,18.4672837 17.4672837,16 20.5,16 C23.5327163,16 26,18.4672837 26,21.5 C26,24.5327163 23.5327163,27 20.5,27" id="Fill-10" fill="#00AEEF"></path>
            <mask id="mask-4" fill="white">
                <use xlink:href="#path-3"></use>
            </mask>
            <g id="Clip-13"></g>
            <polygon id="Fill-12" fill="#00AEEF" mask="url(#mask-4)" points="20 29 21 29 21 23 20 23"></polygon>
            <polygon id="Fill-14" fill="#00AEEF" mask="url(#mask-4)" points="20 20 21 20 21 14 20 14"></polygon>
            <polygon id="Fill-15" fill="#00AEEF" mask="url(#mask-4)" points="22 22 28 22 28 21 22 21"></polygon>
            <polygon id="Fill-16" fill="#00AEEF" mask="url(#mask-4)" points="13 22 19 22 19 21 13 21"></polygon>
        </g>
    </g>
</svg>