<?xml version="1.0" encoding="UTF-8"?>
<svg width="80px" height="80px" viewBox="0 0 80 80" version="1.1" xmlns="http://www.w3.org/2000/svg" xmlns:xlink="http://www.w3.org/1999/xlink">
    <!-- Generator: Sketch 51.3 (57544) - http://www.bohemiancoding.com/sketch -->
    <title>icon/1blue/productivity/big business</title>
    <desc>Created with Sketch.</desc>
    <defs></defs>
    <g id="icon/1blue/productivity/big-business" stroke="none" stroke-width="1" fill="none" fill-rule="evenodd">
        <g id="Group-3" transform="translate(19.000000, 28.000000)" fill="#00AEEF">
            <polygon id="Fill-1" points="35.4376621 -1.33208065e-05 27.1791248 8.23810623 22.6785472 3.74246725 14.5435348 11.8576358 9.9131559 7.23864612 5.34161491e-05 17.1350729 5.34161491e-05 20.2051191 9.9131559 10.3085592 14.5435348 14.9274156 22.6785472 6.81238031 27.1791248 11.3078861 35.4377957 3.06976653 43.0000534 10.613206 43.0000534 7.54342617 35.4379292 -1.33208065e-05"></polygon>
            <polygon id="Fill-2" points="14.5455512 18.6122437 9.9153059 14.0016462 0.0019363354 23.8903469 0.0019363354 26.9601267 9.9153059 17.071426 14.5455512 21.6821568 22.6805637 13.5675211 29.7197438 20.5971771 35.437809 14.8993353 43.0000668 22.4427748 43.0000668 19.3670006 35.437809 11.8314204 35.437809 11.8294223 29.7197438 17.527264 22.6805637 10.4976081"></polygon>
        </g>
    </g>
</svg>