<?xml version="1.0" encoding="utf-8"?>
<!-- Generator: Adobe Illustrator 23.0.2, SVG Export Plug-In . SVG Version: 6.00 Build 0)  -->
<svg version="1.1" id="Layer_1" xmlns="http://www.w3.org/2000/svg" xmlns:xlink="http://www.w3.org/1999/xlink" x="0px" y="0px"
	 viewBox="0 0 80 80" style="enable-background:new 0 0 80 80;" xml:space="preserve">
<style type="text/css">
	.st0{fill-rule:evenodd;clip-rule:evenodd;fill:#BBBBBB;}
</style>
<g id="Symbols">
	<g transform="translate(-4.000000, -9.000000)">
		<g id="Group-17" transform="translate(4.000000, 9.000000)">
			<path id="Fill-1" class="st0" d="M60.1,27.4h-7.6c-0.1,0-0.1,0.1-0.1,0.1v2.2c0,0.1,0.1,0.1,0.1,0.1h5.1c0.1,0,0.1,0.1,0.1,0.1
				v5.2c0,0.1,0.1,0.1,0.1,0.1h2.2c0.1,0,0.1-0.1,0.1-0.1v-7.6C60.2,27.4,60.1,27.4,60.1,27.4"/>
			<path id="Fill-3" class="st0" d="M64.4,22.9H52.5c-0.1,0-0.1,0.1-0.1,0.1v2.2c0,0.1,0.1,0.1,0.1,0.1H62c0.1,0,0.1,0.1,0.1,0.1
				v9.6c0,0.1,0.1,0.1,0.1,0.1h2.2c0.1,0,0.1-0.1,0.1-0.1V23.1C64.6,23,64.5,22.9,64.4,22.9"/>
			<path id="Fill-5" class="st0" d="M56.5,57.1H30.4c-0.2,0-0.4-0.2-0.4-0.4v-1.5c0-0.1,0-0.1,0.1-0.1h26.7c0.1,0,0.1,0,0.1,0.1v1.5
				C56.9,56.9,56.7,57.1,56.5,57.1"/>
			<path id="Fill-7" class="st0" d="M47,52.8h-7.1c-0.1,0-0.1,0-0.1-0.1V50c0-0.1,0-0.1,0.1-0.1H47c0.1,0,0.1,0,0.1,0.1L47,52.8
				C47.1,52.8,47.1,52.8,47,52.8"/>
			<path id="Fill-9" class="st0" d="M53.7,46.4H33.2c-0.1,0-0.2-0.1-0.2-0.2V33.9c0-0.1,0.1-0.2,0.2-0.2h20.5c0.1,0,0.2,0.1,0.2,0.2
				v12.3C53.9,46.3,53.8,46.4,53.7,46.4 M55.6,31.8H31.3c-0.1,0-0.2,0.1-0.2,0.2v16.2c0,0.1,0.1,0.2,0.2,0.2h24.3
				c0.1,0,0.2-0.1,0.2-0.2V32C55.8,31.9,55.7,31.8,55.6,31.8"/>
			<path id="Fill-11" class="st0" d="M24.1,37.7h-4.7c-0.1,0-0.1-0.1-0.1-0.1v-1.7c0-0.1,0-0.1,0.1-0.1h4.7c0.1,0,0.1,0.1,0.1,0.1
				v1.7C24.2,37.6,24.1,37.7,24.1,37.7"/>
			<path id="Fill-13" class="st0" d="M24.1,40.9h-4.7c-0.1,0-0.1-0.1-0.1-0.1v-1.7c0-0.1,0-0.1,0.1-0.1h4.7c0.1,0,0.1,0.1,0.1,0.1
				v1.7C24.2,40.9,24.1,40.9,24.1,40.9"/>
			<path id="Fill-15" class="st0" d="M26,55.1h-8.4c-0.1,0-0.2-0.1-0.2-0.2v-21c0-0.1,0.1-0.2,0.2-0.2H26c0.1,0,0.2,0.1,0.2,0.2v21
				C26.1,55,26.1,55.1,26,55.1 M27.8,31.8H15.7c-0.1,0-0.2,0.1-0.2,0.2v24.8c0,0.1,0.1,0.2,0.2,0.2h12.2c0.1,0,0.2-0.1,0.2-0.2V32
				C28.1,31.9,28,31.8,27.8,31.8"/>
		</g>
	</g>
</g>
</svg>
