<?xml version="1.0" encoding="UTF-8"?>
<svg width="80px" height="80px" viewBox="0 0 80 80" version="1.1" xmlns="http://www.w3.org/2000/svg" xmlns:xlink="http://www.w3.org/1999/xlink">
    <!-- Generator: Sketch 51.3 (57544) - http://www.bohemiancoding.com/sketch -->
    <title>icon/1blue/productivity/pie chart</title>
    <desc>Created with Sketch.</desc>
    <defs></defs>
    <g id="icon/1blue/productivity/pie-chart" stroke="none" stroke-width="1" fill="none" fill-rule="evenodd">
        <g id="productivity-work" transform="translate(24.000000, 23.000000)" fill="#00AEEF" fill-rule="nonzero">
            <path d="M25.024705,31.0961564 L15.2009135,17.827695 C15.1972273,17.8141467 15.1954363,17.8001567 15.1955912,17.7861208 C15.1953921,17.772515 15.1971134,17.7589488 15.2007046,17.7458197 L15.1432904,17.7182458 L15.1432904,1.92140715 C15.1433007,1.88639451 15.1293283,1.85281453 15.1044523,1.82806692 C15.0795762,1.80331931 15.045838,1.78943508 15.0106723,1.78947376 L14.9967186,1.78947376 C12.1276933,2.01727624 9.38279261,3.05229702 7.08196904,4.77389148 C2.78506826,7.68449386 4.44203048e-07,12.5291353 4.44203048e-07,18.022415 C-0.0013908941,23.9242814 3.26578561,29.3460207 8.49667207,32.1222772 C13.7275585,34.8985338 20.0697176,34.5768823 24.9901926,31.2857853 C25.0219586,31.266775 25.0439586,31.2350601 25.050567,31.1987502 C25.0571754,31.1624402 25.0477515,31.1250558 25.024705,31.0961564 Z" id="Shape"></path>
            <path d="M31.4106542,13.5092709 C31.3866698,13.4557604 31.3301808,13.4209277 31.2675935,13.4210559 C31.2543835,13.4209703 31.241225,13.4225899 31.2284982,13.425868 L31.2303393,13.425868 L17.0994187,17.6782339 C17.0557971,17.689672 17.0211431,17.7203898 17.0069102,17.7602348 C16.9926774,17.8000798 17.0007185,17.8438647 17.0283761,17.8771181 L26.2941179,29.4870195 C26.3510276,29.5394145 26.442973,29.5394145 26.4998828,29.4870195 L26.4821221,29.5082716 C31.5021532,25.6082913 33.4536131,19.2734553 31.4106488,13.5092709 L31.4106542,13.5092709 Z" id="Shape"></path>
            <path d="M17.1760333,15.2035892 L32.114612,10.586472 L32.116315,10.586472 C32.1732473,10.566417 32.2108983,10.514582 32.2105043,10.4567995 C32.2107466,10.4433944 32.2089907,10.4300244 32.2052889,10.4170886 L32.1738929,10.3109179 C30.0356889,4.15649267 23.9930919,0.000305433005 17.1830568,0 L17.139422,0 C17.062411,0.000166656105 17.0000577,0.0596090828 17,0.132913321 L17,15.084454 C16.9999894,15.1178984 17.0139496,15.1499744 17.0388042,15.1736136 C17.0636588,15.1972528 17.097368,15.2105152 17.1325036,15.2104783 C17.1473461,15.2108984 17.1621322,15.2085584 17.1760333,15.2035892 Z" id="Shape"></path>
        </g>
    </g>
</svg>