<?xml version="1.0" encoding="utf-8"?>
<!-- Generator: Adobe Illustrator 23.0.2, SVG Export Plug-In . SVG Version: 6.00 Build 0)  -->
<svg version="1.1" id="Layer_1" xmlns="http://www.w3.org/2000/svg" xmlns:xlink="http://www.w3.org/1999/xlink" x="0px" y="0px"
	 viewBox="0 0 80 80" style="enable-background:new 0 0 80 80;" xml:space="preserve">
<style type="text/css">
	.st0{display:none;}
	.st1{display:inline;}
	.st2{fill-rule:evenodd;clip-rule:evenodd;fill:#00AEEF;}
	.st3{fill-rule:evenodd;clip-rule:evenodd;fill:#003E6B;}
	.st4{filter:url(#Adobe_OpacityMaskFilter);}
	.st5{fill-rule:evenodd;clip-rule:evenodd;fill:#FFFFFF;}
	.st6{mask:url(#mask-2_2_);fill-rule:evenodd;clip-rule:evenodd;fill:#00AEEF;}
	.st7{filter:url(#Adobe_OpacityMaskFilter_1_);}
	.st8{mask:url(#mask-4_2_);fill-rule:evenodd;clip-rule:evenodd;fill:#003E6B;}
	.st9{filter:url(#Adobe_OpacityMaskFilter_2_);}
	.st10{mask:url(#mask-6_2_);fill-rule:evenodd;clip-rule:evenodd;fill:#003E6B;}
</style>
<title>icon/white/gaming/singleplayer</title>
<desc>Created with Sketch.</desc>
<title>Group 17</title>
<desc>Created with Sketch.</desc>
<title>Group 11</title>
<desc>Created with Sketch.</desc>
<g id="Page-3" class="st0">
	<g id="Group-11" class="st1">
		<path id="Fill-5" class="st2" d="M20.3,43.1h39.4c0.1,0,0.2-0.1,0.2-0.2V19.9c0-0.1-0.1-0.2-0.2-0.2H20.3c-0.1,0-0.2,0.1-0.2,0.2
			V43C20.1,43,20.2,43.1,20.3,43.1 M62.2,45.6H17.8c-0.2,0-0.3-0.1-0.3-0.3V17.6c0-0.2,0.1-0.3,0.3-0.3h44.4c0.2,0,0.3,0.1,0.3,0.3
			v27.7C62.5,45.4,62.4,45.6,62.2,45.6"/>
		<path id="Fill-7" class="st2" d="M46.8,52.3H33c-0.1,0-0.2-0.1-0.2-0.2v-4.5c0-0.1,0.1-0.2,0.2-0.2h13.8c0.1,0,0.2,0.1,0.2,0.2
			v4.5C47,52.2,46.9,52.3,46.8,52.3"/>
		<path id="Fill-9" class="st2" d="M63.9,58.7H16.1c-0.4,0-0.7-0.4-0.7-0.8v-2.2c0-0.1,0.1-0.2,0.2-0.2h48.8c0.1,0,0.2,0.1,0.2,0.2
			v2.2C64.6,58.4,64.3,58.7,63.9,58.7"/>
		<path class="st3" d="M39.9,35.1c-1.6,0-3.1,0.7-4,2v0.4l2,1.5h0.2c0.9-1.1,2.5-1.1,3.6-0.2l0.2,0.2c0,0,0.2,0.2,0.2,0l1.8-1.5
			c0.2,0,0.2-0.2,0-0.4C42.8,35.9,41.5,35.1,39.9,35.1"/>
		<path class="st3" d="M39.9,29.4c-3.2,0-6.2,1.5-8.1,3.9v0.4l1.7,1.3h0.2c2.8-3.4,7.7-3.9,11.1-1.3c0.4,0.4,0.9,0.6,1.3,1.3
			c0,0,0.2,0.2,0.2,0l1.7-1.3c0.2,0,0.2-0.2,0-0.4C46.1,30.7,43.1,29.4,39.9,29.4"/>
		<path id="Fill-11" class="st3" d="M29.3,31.7c4.6-5.8,13-6.7,18.9-2.2c0.9,0.6,1.5,1.3,2.2,2.2c0,0,0.2,0.2,0.2,0l1.7-1.5v-0.4
			c-3-3.9-7.6-6-12.6-6c-5,0-9.8,2.4-12.8,6.3v0.4l2.2,1.3H29.3z"/>
	</g>
</g>
<title>Group 5</title>
<desc>Created with Sketch.</desc>
<g id="Page-3_1_" class="st0">
	<g id="Group-5" class="st1">
		<path id="Fill-1" class="st2" d="M49.2,47.2H32.6c-0.2,0-0.3,0.1-0.3,0.3v2.4l0,0l0,3.2c0,0.1-0.2,0.2-0.3,0.1
			c0,0-1.2-1.1-1.3-1.1c-2.5-2.2-5.9-5.1-8.3-7.6C19.6,41.6,18,38,18,34.7c0-6.9,5.6-12.5,12.6-12.5h18.8c7,0,12.7,5.7,12.6,12.7
			C61.9,41.7,56.1,47.2,49.2,47.2 M49.2,19.6H30.6c-8.3,0-15.1,6.8-15.1,15.1c0,4,1.9,8.2,5.1,11.6c3.5,3.7,12.2,10.9,13.8,12.1
			c0.2,0.1,0.5,0,0.5-0.3c0-0.2,0-7.7,0-7.7c0-0.3,0.3-0.6,0.6-0.6h13.9c8.4,0,15.2-6.8,15.1-15.2C64.4,26.2,57.5,19.6,49.2,19.6"/>
		<path id="Fill-3" class="st3" d="M49,36.4c0,0.1-0.1,0.1-0.1,0.1h-3.8c-0.1,0-0.1-0.1-0.1-0.1v-3.8c0-0.1,0.1-0.1,0.1-0.1h3.8
			c0.1,0,0.1,0.1,0.1,0.1V36.4z M42,36.4c0,0.1-0.1,0.1-0.1,0.1h-3.8c-0.1,0-0.1-0.1-0.1-0.1v-3.8c0-0.1,0.1-0.1,0.1-0.1h3.8
			c0.1,0,0.1,0.1,0.1,0.1V36.4z M35,36.4c0,0.1-0.1,0.1-0.1,0.1h-3.8c-0.1,0-0.1-0.1-0.1-0.1v-3.8c0-0.1,0.1-0.1,0.1-0.1h3.8
			c0.1,0,0.1,0.1,0.1,0.1V36.4z"/>
	</g>
</g>
<g id="Page-3_2_">
	<g id="Group-12">
		<polygon id="Fill-1_1_" class="st3" points="48.1,26.1 40.4,33.7 40.2,33.7 37.1,30.7 36.9,30.7 34.8,32.8 34.8,33 40.1,38.3 
			40.3,38.3 50.5,28.4 50.5,28.2 48.3,26.1 		"/>
		<g id="Group-11_1_">
			<g id="Group-4">
				<g id="Clip-3">
				</g>
				<defs>
					<filter id="Adobe_OpacityMaskFilter" filterUnits="userSpaceOnUse" x="13.3" y="14.8" width="49.3" height="36.4">
						<feColorMatrix  type="matrix" values="1 0 0 0 0  0 1 0 0 0  0 0 1 0 0  0 0 0 1 0"/>
					</filter>
				</defs>
				<mask maskUnits="userSpaceOnUse" x="13.3" y="14.8" width="49.3" height="36.4" id="mask-2_2_">
					<g class="st4">
						<polygon id="path-1_2_" class="st5" points="13.3,14.8 62.7,14.8 62.7,51.2 13.3,51.2 						"/>
					</g>
				</mask>
				<path id="Fill-2" class="st6" d="M54.3,41.5c0,0.1-0.1,0.2-0.2,0.2H28.7c-0.1,0-0.2-0.1-0.2-0.2l-4.3-17.8
					c0-0.1,0.1-0.3,0.2-0.3h34c0.1,0,0.2,0.1,0.2,0.3L54.3,41.5z M62.4,20.3L62.4,20.3H23.7c-0.2,0-0.4-0.1-0.4-0.3l-1.2-5
					c0-0.2-0.2-0.3-0.4-0.3h-8.3c-0.1,0-0.2,0.1-0.2,0.2v2.8c0,0.1,0.1,0.2,0.2,0.2h6c0.1,0,0.2,0.1,0.2,0.2L27.6,51
					c0,0.1,0.1,0.2,0.2,0.2h27.4c0.1,0,0.2-0.1,0.2-0.2l0.6-2.8c0-0.1-0.1-0.2-0.2-0.2H30.3c-0.1,0-0.2-0.1-0.2-0.2l-0.7-2.8
					c0-0.1,0.1-0.3,0.2-0.3h27.1c0.1,0,0.2-0.1,0.2-0.2l5.8-24.1C62.7,20.4,62.6,20.3,62.4,20.3L62.4,20.3z"/>
			</g>
			<g id="Group-7" transform="translate(20.552846, 50.096035)">
				<g id="Clip-6">
				</g>
				<defs>
					<filter id="Adobe_OpacityMaskFilter_1_" filterUnits="userSpaceOnUse" x="8.8" y="3.5" width="7.9" height="7.9">
						<feColorMatrix  type="matrix" values="1 0 0 0 0  0 1 0 0 0  0 0 1 0 0  0 0 0 1 0"/>
					</filter>
				</defs>
				<mask maskUnits="userSpaceOnUse" x="8.8" y="3.5" width="7.9" height="7.9" id="mask-4_2_">
					<g class="st7">
						<polygon id="path-3_2_" class="st5" points="8.8,3.5 16.7,3.5 16.7,11.4 8.8,11.4 						"/>
					</g>
				</mask>
				<path id="Fill-5_1_" class="st8" d="M12.7,3.5c-2.2,0-4,1.7-4,3.9c0,2.2,1.7,3.9,4,3.9s4-1.7,4-3.9C16.7,5.2,14.9,3.5,12.7,3.5"
					/>
			</g>
			<g id="Group-10" transform="translate(41.626016, 50.096035)">
				<g id="Clip-9">
				</g>
				<defs>
					<filter id="Adobe_OpacityMaskFilter_2_" filterUnits="userSpaceOnUse" x="4.1" y="3.5" width="7.9" height="7.9">
						<feColorMatrix  type="matrix" values="1 0 0 0 0  0 1 0 0 0  0 0 1 0 0  0 0 0 1 0"/>
					</filter>
				</defs>
				<mask maskUnits="userSpaceOnUse" x="4.1" y="3.5" width="7.9" height="7.9" id="mask-6_2_">
					<g class="st9">
						<polygon id="path-5_2_" class="st5" points="4.1,3.5 12,3.5 12,11.4 4.1,11.4 						"/>
					</g>
				</mask>
				<path id="Fill-8" class="st10" d="M8,3.5c-2.2,0-4,1.7-4,3.9c0,2.2,1.7,3.9,4,3.9c2.2,0,4-1.7,4-3.9C12,5.2,10.2,3.5,8,3.5"/>
			</g>
		</g>
	</g>
</g>
</svg>
