<?xml version="1.0" encoding="UTF-8"?>
<svg width="80px" height="80px" viewBox="0 0 80 80" version="1.1" xmlns="http://www.w3.org/2000/svg" xmlns:xlink="http://www.w3.org/1999/xlink">
    <!-- Generator: Sketch 51.3 (57544) - http://www.bohemiancoding.com/sketch -->
    <title>icon/1blue/gaming/singleplayer</title>
    <desc>Created with Sketch.</desc>
    <defs></defs>
    <g id="icon/1blue/gaming/singleplayer" stroke="none" stroke-width="1" fill="none" fill-rule="evenodd">
        <g id="gaming" transform="translate(19.535224, 18.721311)" fill="#00AEEF" fill-rule="nonzero">
            <path d="M34.9468044,13.8451581 L21.4127509,13.8101539 L21.4000648,12.9004512 C21.4000648,12.8304441 21.0850652,4.06702042 26.8471774,1.89407983 L26.1501378,0 C18.998633,2.68749235 19.3823305,12.593004 19.3823305,12.9642357 L19.3823305,13.804904 L5.97640509,13.7702886 L5.97640509,13.7687281 L0,35.2031424 L13.2269579,38.8353455 L14.8497715,33.0430398 L26.0589951,33.0430398 L27.6978126,38.9166237 L40.9295525,35.2494241 L34.9468044,13.8451581 Z M28.0095963,32.4981473 L27.6018918,31.015067 L13.3005384,31.015067 L12.8928338,32.4981473 L11.8119987,36.3454241 L2.51014315,33.7678016 L7.52720052,15.8094428 L7.52241844,15.803025 L33.3991283,15.866712 L38.4226305,33.8251736 L29.120677,36.409115 L28.0095963,32.4981473 Z" id="Shape"></path>
            <polygon id="Shape" points="14.3436262 19.4583118 12.4895988 19.4583118 12.4895988 21.8891682 10.0646441 21.8891682 10.0646441 23.7430439 12.4895988 23.7430439 12.4895988 26.1680746 14.3436262 26.1680746 14.3436262 23.7430439 16.7744068 23.7430439 16.7744068 21.8891682 14.3436262 21.8891682"></polygon>
            <circle id="Oval" cx="26.8390508" cy="20.1292881" r="1.34195254"></circle>
            <circle id="Oval" cx="26.8390508" cy="24.826122" r="1.34195254"></circle>
            <circle id="Oval" cx="24.1551457" cy="22.8131932" r="1.34195254"></circle>
            <circle id="Oval" cx="29.5229559" cy="22.8131932" r="1.34195254"></circle>
        </g>
    </g>
</svg>