<?xml version="1.0" encoding="UTF-8"?>
<svg width="80px" height="80px" viewBox="0 0 80 80" version="1.1" xmlns="http://www.w3.org/2000/svg" xmlns:xlink="http://www.w3.org/1999/xlink">
    <!-- Generator: Sketch 51.3 (57544) - http://www.bohemiancoding.com/sketch -->
    <title>icon/1blue/productivity/small business</title>
    <desc>Created with Sketch.</desc>
    <defs>
        <polygon id="path-1" points="0 0 43 0 43 31.7826087 0 31.7826087"></polygon>
    </defs>
    <g id="icon/1blue/productivity/small-business" stroke="none" stroke-width="1" fill="none" fill-rule="evenodd">
        <g id="folder" transform="translate(19.000000, 24.000000)">
            <mask id="mask-2" fill="white">
                <use xlink:href="#path-1"></use>
            </mask>
            <g id="Clip-2"></g>
            <path d="M40.228436,29.1922095 L2.77156398,29.1922095 C2.68174478,29.1922095 2.60853081,29.1195045 2.60853081,29.0303096 L2.60928559,6.25863223 C2.60928559,6.16943736 2.68174478,6.09748182 2.77231876,6.09748182 L40.228436,6.09748182 C40.3182552,6.09748182 40.3914692,6.16943736 40.3914692,6.25863223 L40.3914692,29.0303096 C40.3914692,29.1195045 40.3182552,29.1922095 40.228436,29.1922095 M42.7094085,3.50558359 L19.9134457,3.51157988 L19.9119361,3.51157988 C19.8055117,3.51083035 19.7753203,3.47335351 19.7194664,3.37291558 L17.9895032,0.134916623 C17.9396876,0.0397254501 17.8966649,0.000749536794 17.7857118,0.000749536794 L0.273986309,0 L0.274741092,0.000749536794 C0.121520098,0.00974397833 0.000754783219,0.134916623 0.000754783219,0.288571666 L0,31.2609311 C0,31.5495028 0.235492364,31.7826087 0.526083904,31.7826087 L42.4746709,31.7826087 C42.7645076,31.7826087 43,31.5495028 43,31.2609311 L43,3.79415525 C43,3.63525345 42.8701773,3.50558359 42.7094085,3.50558359" id="Fill-1" fill="#00AEEF" mask="url(#mask-2)"></path>
        </g>
    </g>
</svg>