<?xml version="1.0" encoding="UTF-8"?>
<svg width="80px" height="80px" viewBox="0 0 80 80" version="1.1" xmlns="http://www.w3.org/2000/svg" xmlns:xlink="http://www.w3.org/1999/xlink">
    <!-- Generator: Sketch 51.3 (57544) - http://www.bohemiancoding.com/sketch -->
    <title>icon/2blue/education/college</title>
    <desc>Created with Sketch.</desc>
    <defs>
        <polygon id="path-1" points="0.130189935 0.525732046 28.3111874 0.525732046 28.3111874 14.5526062 0.130189935 14.5526062"></polygon>
    </defs>
    <g id="icon/2blue/education/college" stroke="none" stroke-width="1" fill="none" fill-rule="evenodd">
        <g id="mortar-board" transform="translate(16.000000, 25.000000)">
            <polygon id="Fill-1" fill="#00AEEF" points="23.9981944 0 0 9.49961901 23.9996389 19 48 9.49961901 24.0018056 0"></polygon>
            <g id="Group-9" transform="translate(9.000000, 8.000000)">
                <g id="Group-4" transform="translate(0.000000, 6.893340)">
                    <mask id="mask-2" fill="white">
                        <use xlink:href="#path-1"></use>
                    </mask>
                    <g id="Clip-3"></g>
                    <path d="M28.3111874,9.52020118 C27.1705999,9.3068218 25.948468,9.19111969 24.6774194,9.19111969 C19.6785823,9.19111969 15.4363542,10.9807153 13.9354839,13.4634482 C12.4346136,10.9807153 8.19238546,9.19111969 3.19354839,9.19111969 C2.13197042,9.19111969 1.10451468,9.27182846 0.130189935,9.42274476 L0.130189935,0.525732046 L14.2203228,6.06031795 L28.3111874,0.525732046 L28.3111874,9.52020118 Z" id="Combined-Shape" fill="#003C71" mask="url(#mask-2)"></path>
                </g>
                <path d="M34.2083532,10.2412051 L32.2205609,10.2412051 C32.1517893,10.2412051 32.0976499,10.1600169 32.0976499,10.0596805 L32.0976499,0.660228764 C32.0976499,0.559892375 32.1517893,0.478704151 32.2205609,0.478704151 L34.2083532,0.478704151 C34.2756615,0.478704151 34.3305325,0.559892375 34.3305325,0.660228764 L34.3305325,10.0596805 C34.3305325,10.1600169 34.2756615,10.2412051 34.2083532,10.2412051" id="Fill-5" fill="#00AEEF"></path>
                <path d="M35.4973088,15.4366387 L30.9313126,15.4366387 C30.8522985,15.4366387 30.7981591,15.3523868 30.8296185,15.2750282 L32.0697023,12.2021305 C32.0865294,12.1592386 32.1274997,12.1316653 32.1721281,12.1316653 L34.2572249,12.1316653 C34.3018533,12.1316653 34.342092,12.1592386 34.3596507,12.2021305 L35.5997346,15.2750282 C35.6304623,15.3523868 35.576323,15.4366387 35.4973088,15.4366387" id="Fill-7" fill="#00AEEF"></path>
            </g>
        </g>
    </g>
</svg>